<svg width="1440" height="451" viewBox="0 0 1440 451" fill="none" xmlns="http://www.w3.org/2000/svg">
<g clip-path="url(#clip0_323_9497)">
<path d="M210 130H205V135H210V130Z" fill="#EAB118"/>
<path d="M255 130H245V135H255V130Z" fill="#EAB118"/>
<path d="M295 130H290V135H295V130Z" fill="#EAB118"/>
<path d="M210 135H205V140H210V135Z" fill="#EAB118"/>
<path d="M255 135H245V140H255V135Z" fill="#EAB118"/>
<path d="M295 135H290V140H295V135Z" fill="#EAB118"/>
<path d="M215 140H205V145H215V140Z" fill="#EAB118"/>
<path d="M260 140H240V145H260V140Z" fill="#EAB118"/>
<path d="M295 140H285V145H295V140Z" fill="#EAB118"/>
<path d="M210 145H200V150H210V145Z" fill="#257CED"/>
<path d="M215 145H210V150H215V145Z" fill="#DB8323"/>
<path d="M220 145H215V150H220V145Z" fill="#EAB118"/>
<path d="M240 145H235V150H240V145Z" fill="#EAB118"/>
<path d="M260 145H240V150H260V145Z" fill="#34AC80"/>
<path d="M265 145H260V150H265V145Z" fill="#EAB118"/>
<path d="M285 145H280V150H285V145Z" fill="#EAB118"/>
<path d="M290 145H285V150H290V145Z" fill="#DB8323"/>
<path d="M300 145H290V150H300V145Z" fill="#FF1A0B"/>
<path d="M205 150H200V155H205V150Z" fill="#257CED"/>
<path d="M210 150H205V155H210V150Z" fill="#00499C"/>
<path d="M215 150H210V155H215V150Z" fill="#DB8323"/>
<path d="M225 150H215V155H225V150Z" fill="#EAB118"/>
<path d="M240 150H230V155H240V150Z" fill="#EAB118"/>
<path d="M245 150H240V155H245V150Z" fill="#34AC80"/>
<path d="M255 150H245V155H255V150Z" fill="#42FFB0"/>
<path d="M260 150H255V155H260V150Z" fill="#068940"/>
<path d="M270 150H260V155H270V150Z" fill="#EAB118"/>
<path d="M285 150H275V155H285V150Z" fill="#EAB118"/>
<path d="M290 150H285V155H290V150Z" fill="#DB8323"/>
<path d="M295 150H290V155H295V150Z" fill="#D22209"/>
<path d="M300 150H295V155H300V150Z" fill="#FF1A0B"/>
<path d="M210 155H200V160H210V155Z" fill="#00499C"/>
<path d="M215 155H210V160H215V155Z" fill="#DB8323"/>
<path d="M240 155H215V160H240V155Z" fill="#EAB118"/>
<path d="M250 155H240V160H250V155Z" fill="#34AC80"/>
<path d="M260 155H250V160H260V155Z" fill="#068940"/>
<path d="M285 155H260V160H285V155Z" fill="#EAB118"/>
<path d="M290 155H285V160H290V155Z" fill="#DB8323"/>
<path d="M300 155H290V160H300V155Z" fill="#D22209"/>
<path d="M295 160H205V165H295V160Z" fill="#EAB118"/>
<path d="M295 165H205V170H295V165Z" fill="#EAB118"/>
<path d="M295 170H205V175H295V170Z" fill="#EAB118"/>
<path d="M295 175H205V180H295V175Z" fill="#EAB118"/>
<path d="M295 180H205V185H295V180Z" fill="#EAB118"/>
<path d="M295 185H205V190H295V185Z" fill="#EAB118"/>
<path d="M295 190H205V195H295V190Z" fill="#EAB118"/>
<path d="M295 195H205V200H295V195Z" fill="#EAB118"/>
<path d="M215 200H210V205H215V200Z" fill="#6E3206"/>
<path d="M240 200H215V205H240V200Z" fill="#DB8323"/>
<path d="M260 200H240V205H260V200Z" fill="#6E3206"/>
<path d="M285 200H260V205H285V200Z" fill="#DB8323"/>
<path d="M290 200H285V205H290V200Z" fill="#6E3206"/>
<path d="M295 205H205V210H295V205Z" fill="#EAB118"/>
<path d="M295 210H205V215H295V210Z" fill="#EAB118"/>
<path d="M330.565 33H269.695V37.3478H330.565V33Z" fill="#FE500C"/>
<path d="M334.912 33H330.564V37.3478H334.912V33Z" fill="#D6C3BE"/>
<path d="M330.565 37.3478H265.348V41.6956H330.565V37.3478Z" fill="#FE500C"/>
<path d="M334.912 37.3478H330.564V41.6956H334.912V37.3478Z" fill="#D6C3BE"/>
<path d="M339.26 37.3478H334.912V41.6956H339.26V37.3478Z" fill="#7D635E"/>
<path d="M330.565 41.6957H265.348V46.0435H330.565V41.6957Z" fill="#FE500C"/>
<path d="M334.912 41.6957H330.564V46.0435H334.912V41.6957Z" fill="#D6C3BE"/>
<path d="M339.26 41.6957H334.912V46.0435H339.26V41.6957Z" fill="#7D635E"/>
<path d="M343.61 41.6957H339.262V46.0435H343.61V41.6957Z" fill="#B2958D"/>
<path d="M347.957 41.6957H343.609V46.0435H347.957V41.6957Z" fill="#7D635E"/>
<path d="M352.305 41.6957H347.957V46.0435H352.305V41.6957Z" fill="#B2958D"/>
<path d="M356.653 41.6957H352.305V46.0435H356.653V41.6957Z" fill="#7D635E"/>
<path d="M361 41.6957H356.652V46.0435H361V41.6957Z" fill="#B2958D"/>
<path d="M330.565 46.0435H261V50.3913H330.565V46.0435Z" fill="#FE500C"/>
<path d="M334.912 46.0435H330.564V50.3913H334.912V46.0435Z" fill="#D6C3BE"/>
<path d="M343.608 46.0435H334.912V50.3913H343.608V46.0435Z" fill="#7D635E"/>
<path d="M347.957 46.0435H343.609V50.3913H347.957V46.0435Z" fill="#B2958D"/>
<path d="M352.305 46.0435H347.957V50.3913H352.305V46.0435Z" fill="#7D635E"/>
<path d="M356.653 46.0435H352.305V50.3913H356.653V46.0435Z" fill="#B2958D"/>
<path d="M361 46.0435H356.652V50.3913H361V46.0435Z" fill="#7D635E"/>
<path d="M330.565 50.3914H261V54.7392H330.565V50.3914Z" fill="#FE500C"/>
<path d="M334.912 50.3914H330.564V54.7392H334.912V50.3914Z" fill="#D6C3BE"/>
<path d="M339.26 50.3914H334.912V54.7392H339.26V50.3914Z" fill="#7D635E"/>
<path d="M330.565 54.7391H265.348V59.087H330.565V54.7391Z" fill="#FE500C"/>
<path d="M334.912 54.7391H330.564V59.087H334.912V54.7391Z" fill="#D6C3BE"/>
<path d="M330.565 59.0869H265.348V63.4347H330.565V59.0869Z" fill="#FE500C"/>
<path d="M334.912 59.0869H330.564V63.4347H334.912V59.0869Z" fill="#D6C3BE"/>
<path d="M330.565 63.4348H269.695V67.7826H330.565V63.4348Z" fill="#FE500C"/>
<path d="M334.912 63.4348H330.564V67.7826H334.912V63.4348Z" fill="#D6C3BE"/>
<path d="M304.477 67.7826H282.738V72.1304H304.477V67.7826Z" fill="#7D635E"/>
<path d="M308.826 67.7826H304.479V72.1304H308.826V67.7826Z" fill="#D6C3BE"/>
<path d="M304.477 72.1304H282.738V76.4782H304.477V72.1304Z" fill="#7D635E"/>
<path d="M313.174 72.1304H304.479V76.4782H313.174V72.1304Z" fill="#D6C3BE"/>
<path d="M304.477 76.4783H282.738V80.8261H304.477V76.4783Z" fill="#7D635E"/>
<path d="M317.522 76.4783H304.479V80.8261H317.522V76.4783Z" fill="#D6C3BE"/>
<path d="M313.173 80.826H282.738V85.1739H313.173V80.826Z" fill="#7D635E"/>
<path d="M282.738 85.174H278.391V89.5218H282.738V85.174Z" fill="#FE500C"/>
<path d="M287.086 85.174H282.738V89.5218H287.086V85.174Z" fill="black"/>
<path d="M291.436 85.174H287.088V89.5218H291.436V85.174Z" fill="#FFC110"/>
<path d="M295.783 85.174H291.436V89.5218H295.783V85.174Z" fill="black"/>
<path d="M300.131 85.174H295.783V89.5218H300.131V85.174Z" fill="#FFC110"/>
<path d="M304.479 85.174H300.131V89.5218H304.479V85.174Z" fill="black"/>
<path d="M339.261 85.174H304.479V89.5218H339.261V85.174Z" fill="#FE500C"/>
<path d="M339.26 89.5217H278.391V93.8696H339.26V89.5217Z" fill="#FE500C"/>
<path d="M291 306H191V310.545H291V306Z" fill="#2B2834"/>
<path d="M204.636 310.545H195.545V315.091H204.636V310.545Z" fill="#2B2834"/>
<path d="M218.273 310.545H209.182V315.091H218.273V310.545Z" fill="#2B2834"/>
<path d="M231.909 310.545H222.818V315.091H231.909V310.545Z" fill="#2B2834"/>
<path d="M245.546 310.545H236.455V315.091H245.546V310.545Z" fill="#2B2834"/>
<path d="M259.183 310.545H250.092V315.091H259.183V310.545Z" fill="#2B2834"/>
<path d="M272.817 310.545H263.727V315.091H272.817V310.545Z" fill="#2B2834"/>
<path d="M286.454 310.545H277.363V315.091H286.454V310.545Z" fill="#2B2834"/>
<path d="M291 315.091H191V319.636H291V315.091Z" fill="#2B2834"/>
<path d="M200.091 319.636H191V324.182H200.091V319.636Z" fill="#0079FC"/>
<path d="M204.637 319.636H200.092V324.182H204.637V319.636Z" fill="#2B2834"/>
<path d="M277.364 319.636H204.637V324.182H277.364V319.636Z" fill="#0079FC"/>
<path d="M281.909 319.636H277.363V324.182H281.909V319.636Z" fill="#2B2834"/>
<path d="M290.999 319.636H281.908V324.182H290.999V319.636Z" fill="#0079FC"/>
<path d="M200.091 324.182H191V328.727H200.091V324.182Z" fill="#0079FC"/>
<path d="M204.637 324.182H200.092V328.727H204.637V324.182Z" fill="#2B2834"/>
<path d="M277.364 324.182H204.637V328.727H277.364V324.182Z" fill="#0079FC"/>
<path d="M281.909 324.182H277.363V328.727H281.909V324.182Z" fill="#2B2834"/>
<path d="M290.999 324.182H281.908V328.727H290.999V324.182Z" fill="#0079FC"/>
<path d="M200.091 328.727H191V333.273H200.091V328.727Z" fill="#0079FC"/>
<path d="M204.637 328.727H200.092V333.273H204.637V328.727Z" fill="#2B2834"/>
<path d="M277.364 328.727H204.637V333.273H277.364V328.727Z" fill="#0079FC"/>
<path d="M281.909 328.727H277.363V333.273H281.909V328.727Z" fill="#2B2834"/>
<path d="M290.999 328.727H281.908V333.273H290.999V328.727Z" fill="#0079FC"/>
<path d="M200.091 333.273H191V337.818H200.091V333.273Z" fill="#0079FC"/>
<path d="M204.637 333.273H200.092V337.818H204.637V333.273Z" fill="#2B2834"/>
<path d="M277.364 333.273H204.637V337.818H277.364V333.273Z" fill="#0079FC"/>
<path d="M281.909 333.273H277.363V337.818H281.909V333.273Z" fill="#2B2834"/>
<path d="M290.999 333.273H281.908V337.818H290.999V333.273Z" fill="#0079FC"/>
<path d="M195.545 337.818H191V342.364H195.545V337.818Z" fill="#0079FC"/>
<path d="M200.09 337.818H195.545V342.364H200.09V337.818Z" fill="#027EE6"/>
<path d="M204.637 337.818H200.092V342.364H204.637V337.818Z" fill="#2B2834"/>
<path d="M277.364 337.818H204.637V342.364H277.364V337.818Z" fill="#0079FC"/>
<path d="M281.909 337.818H277.363V342.364H281.909V337.818Z" fill="#2B2834"/>
<path d="M290.999 337.818H281.908V342.364H290.999V337.818Z" fill="#0079FC"/>
<path d="M200.091 342.364H191V346.909H200.091V342.364Z" fill="#0079FC"/>
<path d="M204.637 342.364H200.092V346.909H204.637V342.364Z" fill="#2B2834"/>
<path d="M277.364 342.364H204.637V346.909H277.364V342.364Z" fill="#0079FC"/>
<path d="M281.909 342.364H277.363V346.909H281.909V342.364Z" fill="#2B2834"/>
<path d="M290.999 342.364H281.908V346.909H290.999V342.364Z" fill="#0079FC"/>
<path d="M200.091 346.909H191V351.455H200.091V346.909Z" fill="#0079FC"/>
<path d="M204.637 346.909H200.092V351.455H204.637V346.909Z" fill="#2B2834"/>
<path d="M277.364 346.909H204.637V351.455H277.364V346.909Z" fill="#0079FC"/>
<path d="M281.909 346.909H277.363V351.455H281.909V346.909Z" fill="#2B2834"/>
<path d="M290.999 346.909H281.908V351.455H290.999V346.909Z" fill="#0079FC"/>
<path d="M200.091 351.455H191V356H200.091V351.455Z" fill="#0079FC"/>
<path d="M204.637 351.455H200.092V356H204.637V351.455Z" fill="#2B2834"/>
<path d="M277.364 351.455H204.637V356H277.364V351.455Z" fill="#0079FC"/>
<path d="M281.909 351.455H277.363V356H281.909V351.455Z" fill="#2B2834"/>
<path d="M290.999 351.455H281.908V356H290.999V351.455Z" fill="#0079FC"/>
<path d="M200.091 356H191V360.545H200.091V356Z" fill="#0079FC"/>
<path d="M204.637 356H200.092V360.545H204.637V356Z" fill="#2B2834"/>
<path d="M277.364 356H204.637V360.545H277.364V356Z" fill="#0079FC"/>
<path d="M281.909 356H277.363V360.545H281.909V356Z" fill="#2B2834"/>
<path d="M290.999 356H281.908V360.545H290.999V356Z" fill="#0079FC"/>
<path d="M200.091 360.545H191V365.091H200.091V360.545Z" fill="#0079FC"/>
<path d="M204.637 360.545H200.092V365.091H204.637V360.545Z" fill="#2B2834"/>
<path d="M277.364 360.545H204.637V365.091H277.364V360.545Z" fill="#0079FC"/>
<path d="M281.909 360.545H277.363V365.091H281.909V360.545Z" fill="#2B2834"/>
<path d="M290.999 360.545H281.908V365.091H290.999V360.545Z" fill="#0079FC"/>
<path d="M291 365.091H191V369.636H291V365.091Z" fill="#2B2834"/>
<path d="M204.636 369.636H195.545V374.182H204.636V369.636Z" fill="#2B2834"/>
<path d="M218.273 369.636H209.182V374.182H218.273V369.636Z" fill="#2B2834"/>
<path d="M231.909 369.636H222.818V374.182H231.909V369.636Z" fill="#2B2834"/>
<path d="M245.546 369.636H236.455V374.182H245.546V369.636Z" fill="#2B2834"/>
<path d="M259.183 369.636H250.092V374.182H259.183V369.636Z" fill="#2B2834"/>
<path d="M272.817 369.636H263.727V374.182H272.817V369.636Z" fill="#2B2834"/>
<path d="M286.454 369.636H277.363V374.182H286.454V369.636Z" fill="#2B2834"/>
<path d="M291 374.182H191V378.727H291V374.182Z" fill="#2B2834"/>
<path d="M97.1673 277H88.834V281.167H97.1673V277Z" fill="#E2C8C0"/>
<path d="M72.1673 281.167H63.834V285.333H72.1673V281.167Z" fill="#E2C8C0"/>
<path d="M92.9993 281.167H84.666V285.333H92.9993V281.167Z" fill="#E2C8C0"/>
<path d="M122.167 281.167H113.834V285.333H122.167V281.167Z" fill="#E2C8C0"/>
<path d="M76.3333 285.333H68V289.5H76.3333V285.333Z" fill="#E2C8C0"/>
<path d="M97.1673 285.333H88.834V289.5H97.1673V285.333Z" fill="#E2C8C0"/>
<path d="M117.999 285.333H109.666V289.5H117.999V285.333Z" fill="#E2C8C0"/>
<path d="M72.1673 289.5H63.834V293.667H72.1673V289.5Z" fill="#E2C8C0"/>
<path d="M92.9993 289.5H84.666V293.667H92.9993V289.5Z" fill="#E2C8C0"/>
<path d="M122.167 289.5H113.834V293.667H122.167V289.5Z" fill="#E2C8C0"/>
<path d="M76.3333 293.667H68V297.833H76.3333V293.667Z" fill="#E2C8C0"/>
<path d="M117.999 293.667H109.666V297.833H117.999V293.667Z" fill="#E2C8C0"/>
<path d="M72.1673 297.833H63.834V302H72.1673V297.833Z" fill="#E2C8C0"/>
<path d="M97.1673 297.833H88.834V302H97.1673V297.833Z" fill="#B9185C"/>
<path d="M122.167 297.833H113.834V302H122.167V297.833Z" fill="#E2C8C0"/>
<path d="M76.3333 302H68V306.167H76.3333V302Z" fill="#E2C8C0"/>
<path d="M92.9993 302H84.666V306.167H92.9993V302Z" fill="#B9185C"/>
<path d="M97.1667 302H93V306.167H97.1667V302Z" fill="#E9265C"/>
<path d="M101.333 302H97.166V306.167H101.333V302Z" fill="#B9185C"/>
<path d="M117.999 302H109.666V306.167H117.999V302Z" fill="#E2C8C0"/>
<path d="M84.6667 306.167H80.5V310.333H84.6667V306.167Z" fill="#D19A54"/>
<path d="M101.333 306.167H84.666V310.333H101.333V306.167Z" fill="#B9185C"/>
<path d="M105.501 306.167H101.334V310.333H105.501V306.167Z" fill="#D19A54"/>
<path d="M72.1673 310.333H63.834V314.5H72.1673V310.333Z" fill="#D19A54"/>
<path d="M76.3327 310.333H72.166V314.5H76.3327V310.333Z" fill="#B9185C"/>
<path d="M88.834 310.333H76.334V314.5H88.834V310.333Z" fill="#D19A54"/>
<path d="M97.1673 310.333H88.834V314.5H97.1673V310.333Z" fill="#B9185C"/>
<path d="M109.666 310.333H97.166V314.5H109.666V310.333Z" fill="#D19A54"/>
<path d="M113.833 310.333H109.666V314.5H113.833V310.333Z" fill="#B9185C"/>
<path d="M122.167 310.333H113.834V314.5H122.167V310.333Z" fill="#D19A54"/>
<path d="M130.5 314.5H55.5V318.667H130.5V314.5Z" fill="#D19A54"/>
<path d="M55.5007 318.667H51.334V322.833H55.5007V318.667Z" fill="#D19A54"/>
<path d="M59.6667 318.667H55.5V322.833H59.6667V318.667Z" fill="#B9185C"/>
<path d="M126.333 318.667H59.666V322.833H126.333V318.667Z" fill="#D19A54"/>
<path d="M130.501 318.667H126.334V322.833H130.501V318.667Z" fill="#B9185C"/>
<path d="M134.667 318.667H130.5V322.833H134.667V318.667Z" fill="#D19A54"/>
<path d="M138.833 322.833H47.166V327H138.833V322.833Z" fill="#D19A54"/>
<path d="M51.3327 327H47.166V331.167H51.3327V327Z" fill="#D19A54"/>
<path d="M68.0007 327H51.334V331.167H68.0007V327Z" fill="#C16923"/>
<path d="M72.1667 327H68V331.167H72.1667V327Z" fill="#D19A54"/>
<path d="M88.8327 327H72.166V331.167H88.8327V327Z" fill="#C16923"/>
<path d="M93.0007 327H88.834V331.167H93.0007V327Z" fill="#D19A54"/>
<path d="M109.667 327H93V331.167H109.667V327Z" fill="#C16923"/>
<path d="M113.833 327H109.666V331.167H113.833V327Z" fill="#D19A54"/>
<path d="M130.501 327H113.834V331.167H130.501V327Z" fill="#C16923"/>
<path d="M134.667 327H130.5V331.167H134.667V327Z" fill="#D19A54"/>
<path d="M138.833 327H134.666V331.167H138.833V327Z" fill="#C16923"/>
<path d="M143 331.167H43V335.333H143V331.167Z" fill="#C16923"/>
<path d="M143 335.333H43V339.5H143V335.333Z" fill="#C16923"/>
<path d="M55.5 339.5H43V343.667H55.5V339.5Z" fill="#C16923"/>
<path d="M63.8333 339.5H55.5V343.667H63.8333V339.5Z" fill="#769CA9"/>
<path d="M76.334 339.5H63.834V343.667H76.334V339.5Z" fill="#C16923"/>
<path d="M80.5007 339.5H76.334V343.667H80.5007V339.5Z" fill="#5A6B7B"/>
<path d="M84.6667 339.5H80.5V343.667H84.6667V339.5Z" fill="#769CA9"/>
<path d="M97.166 339.5H84.666V343.667H97.166V339.5Z" fill="#C16923"/>
<path d="M101.333 339.5H97.166V343.667H101.333V339.5Z" fill="#769CA9"/>
<path d="M105.501 339.5H101.334V343.667H105.501V339.5Z" fill="#5A6B7B"/>
<path d="M118 339.5H105.5V343.667H118V339.5Z" fill="#C16923"/>
<path d="M126.333 339.5H118V343.667H126.333V339.5Z" fill="#769CA9"/>
<path d="M143.001 339.5H126.334V343.667H143.001V339.5Z" fill="#C16923"/>
<path d="M47.1667 343.667H43V347.833H47.1667V343.667Z" fill="#C16923"/>
<path d="M51.3327 343.667H47.166V347.833H51.3327V343.667Z" fill="#769CA9"/>
<path d="M55.5007 343.667H51.334V347.833H55.5007V343.667Z" fill="#5A6B7B"/>
<path d="M63.8333 343.667H55.5V347.833H63.8333V343.667Z" fill="#769CA9"/>
<path d="M68.0007 343.667H63.834V347.833H68.0007V343.667Z" fill="#5A6B7B"/>
<path d="M76.3333 343.667H68V347.833H76.3333V343.667Z" fill="#769CA9"/>
<path d="M80.5007 343.667H76.334V347.833H80.5007V343.667Z" fill="#1E3445"/>
<path d="M88.8333 343.667H80.5V347.833H88.8333V343.667Z" fill="#769CA9"/>
<path d="M93.0007 343.667H88.834V347.833H93.0007V343.667Z" fill="#5A6B7B"/>
<path d="M101.333 343.667H93V347.833H101.333V343.667Z" fill="#769CA9"/>
<path d="M105.501 343.667H101.334V347.833H105.501V343.667Z" fill="#5A6B7B"/>
<path d="M113.833 343.667H105.5V347.833H113.833V343.667Z" fill="#769CA9"/>
<path d="M118.001 343.667H113.834V347.833H118.001V343.667Z" fill="#5A6B7B"/>
<path d="M126.333 343.667H118V347.833H126.333V343.667Z" fill="#769CA9"/>
<path d="M130.501 343.667H126.334V347.833H130.501V343.667Z" fill="#5A6B7B"/>
<path d="M138.833 343.667H130.5V347.833H138.833V343.667Z" fill="#769CA9"/>
<path d="M143.001 343.667H138.834V347.833H143.001V343.667Z" fill="#C16923"/>
<path d="M51.3327 347.833H47.166V352H51.3327V347.833Z" fill="#769CA9"/>
<path d="M55.5007 347.833H51.334V352H55.5007V347.833Z" fill="#5A6B7B"/>
<path d="M63.8333 347.833H55.5V352H63.8333V347.833Z" fill="#769CA9"/>
<path d="M68.0007 347.833H63.834V352H68.0007V347.833Z" fill="#5A6B7B"/>
<path d="M76.3333 347.833H68V352H76.3333V347.833Z" fill="#769CA9"/>
<path d="M113.834 347.833H76.334V352H113.834V347.833Z" fill="#1E3445"/>
<path d="M118.001 347.833H113.834V352H118.001V347.833Z" fill="#5A6B7B"/>
<path d="M126.333 347.833H118V352H126.333V347.833Z" fill="#769CA9"/>
<path d="M130.501 347.833H126.334V352H130.501V347.833Z" fill="#5A6B7B"/>
<path d="M138.833 347.833H130.5V352H138.833V347.833Z" fill="#769CA9"/>
<path d="M55.5007 352H51.334V356.167H55.5007V352Z" fill="#5A6B7B"/>
<path d="M63.8333 352H55.5V356.167H63.8333V352Z" fill="#769CA9"/>
<path d="M68.0007 352H63.834V356.167H68.0007V352Z" fill="#5A6B7B"/>
<path d="M76.3333 352H68V356.167H76.3333V352Z" fill="#769CA9"/>
<path d="M80.5007 352H76.334V356.167H80.5007V352Z" fill="#1E3445"/>
<path d="M88.8333 352H80.5V356.167H88.8333V352Z" fill="#769CA9"/>
<path d="M93.0007 352H88.834V356.167H93.0007V352Z" fill="#5A6B7B"/>
<path d="M101.333 352H93V356.167H101.333V352Z" fill="#769CA9"/>
<path d="M105.501 352H101.334V356.167H105.501V352Z" fill="#5A6B7B"/>
<path d="M113.833 352H105.5V356.167H113.833V352Z" fill="#769CA9"/>
<path d="M118.001 352H113.834V356.167H118.001V352Z" fill="#5A6B7B"/>
<path d="M126.333 352H118V356.167H126.333V352Z" fill="#769CA9"/>
<path d="M130.501 352H126.334V356.167H130.501V352Z" fill="#5A6B7B"/>
<path d="M134.667 352H130.5V356.167H134.667V352Z" fill="#769CA9"/>
<path d="M55.5007 356.167H51.334V360.333H55.5007V356.167Z" fill="#5A6B7B"/>
<path d="M63.8333 356.167H55.5V360.333H63.8333V356.167Z" fill="#769CA9"/>
<path d="M68.0007 356.167H63.834V360.333H68.0007V356.167Z" fill="#5A6B7B"/>
<path d="M76.3333 356.167H68V360.333H76.3333V356.167Z" fill="#769CA9"/>
<path d="M80.5007 356.167H76.334V360.333H80.5007V356.167Z" fill="#5A6B7B"/>
<path d="M88.8333 356.167H80.5V360.333H88.8333V356.167Z" fill="#769CA9"/>
<path d="M93.0007 356.167H88.834V360.333H93.0007V356.167Z" fill="#5A6B7B"/>
<path d="M101.333 356.167H93V360.333H101.333V356.167Z" fill="#769CA9"/>
<path d="M105.501 356.167H101.334V360.333H105.501V356.167Z" fill="#5A6B7B"/>
<path d="M113.833 356.167H105.5V360.333H113.833V356.167Z" fill="#769CA9"/>
<path d="M118.001 356.167H113.834V360.333H118.001V356.167Z" fill="#5A6B7B"/>
<path d="M126.333 356.167H118V360.333H126.333V356.167Z" fill="#769CA9"/>
<path d="M130.501 356.167H126.334V360.333H130.501V356.167Z" fill="#5A6B7B"/>
<path d="M134.667 356.167H130.5V360.333H134.667V356.167Z" fill="#769CA9"/>
<path d="M130.571 167H127V170.571H130.571V167Z" fill="#FB4694"/>
<path d="M134.142 170.571H123.428V174.143H134.142V170.571Z" fill="#FB4694"/>
<path d="M130.571 174.143H127V177.714H130.571V174.143Z" fill="#FB4694"/>
<path d="M137.714 177.714H116.285V181.286H137.714V177.714Z" fill="#FB4694"/>
<path d="M144.857 181.286H109.143V184.857H144.857V181.286Z" fill="#FB4694"/>
<path d="M152 184.857H102V188.429H152V184.857Z" fill="#2B83F6"/>
<path d="M134.142 188.429H98.4277V192H134.142V188.429Z" fill="#2B83F6"/>
<path d="M137.714 188.429H134.143V192H137.714V188.429Z" fill="#CAEFF9"/>
<path d="M141.286 188.429H137.715V192H141.286V188.429Z" fill="#2B83F6"/>
<path d="M148.428 188.429H141.285V192H148.428V188.429Z" fill="#CAEFF9"/>
<path d="M155.571 188.429H148.428V192H155.571V188.429Z" fill="#2B83F6"/>
<path d="M141.285 192H98.4277V195.571H141.285V192Z" fill="#2B83F6"/>
<path d="M148.428 192H141.285V195.571H148.428V192Z" fill="#CAEFF9"/>
<path d="M155.571 192H148.428V195.571H155.571V192Z" fill="#2B83F6"/>
<path d="M159.143 195.571H94.8574V199.143H159.143V195.571Z" fill="#2B83F6"/>
<path d="M159.143 199.143H94.8574V202.714H159.143V199.143Z" fill="#2B83F6"/>
<path d="M159.143 202.714H94.8574V206.286H159.143V202.714Z" fill="#2B83F6"/>
<path d="M162.714 206.286H91.2852V209.857H162.714V206.286Z" fill="#2B83F6"/>
<path d="M162.714 209.857H91.2852V213.429H162.714V209.857Z" fill="#2B83F6"/>
<path d="M162.714 213.429H91.2852V217H162.714V213.429Z" fill="#2B83F6"/>
<path d="M162.714 217H91.2852V220.571H162.714V217Z" fill="#FB4694"/>
<path d="M169.857 220.571H84.1426V224.143H169.857V220.571Z" fill="#FB4694"/>
<path d="M98.4294 224.143H80.5723V227.714H98.4294V224.143Z" fill="#FB4694"/>
<path d="M105.571 224.143H98.4277V227.714H105.571V224.143Z" fill="#FFE939"/>
<path d="M109.144 224.143H105.572V227.714H109.144V224.143Z" fill="#FB4694"/>
<path d="M116.285 224.143H109.143V227.714H116.285V224.143Z" fill="#FFE939"/>
<path d="M119.857 224.143H116.285V227.714H119.857V224.143Z" fill="#FB4694"/>
<path d="M127 224.143H119.857V227.714H127V224.143Z" fill="#FFE939"/>
<path d="M130.571 224.143H127V227.714H130.571V224.143Z" fill="#FB4694"/>
<path d="M137.715 224.143H130.572V227.714H137.715V224.143Z" fill="#FFE939"/>
<path d="M141.286 224.143H137.715V227.714H141.286V224.143Z" fill="#FB4694"/>
<path d="M148.428 224.143H141.285V227.714H148.428V224.143Z" fill="#FFE939"/>
<path d="M151.999 224.143H148.428V227.714H151.999V224.143Z" fill="#FB4694"/>
<path d="M159.143 224.143H152V227.714H159.143V224.143Z" fill="#FFE939"/>
<path d="M173.428 224.143H159.143V227.714H173.428V224.143Z" fill="#FB4694"/>
<path d="M98.4286 227.714H77V231.286H98.4286V227.714Z" fill="#FB4694"/>
<path d="M105.571 227.714H98.4277V231.286H105.571V227.714Z" fill="#FFE939"/>
<path d="M109.144 227.714H105.572V231.286H109.144V227.714Z" fill="#FB4694"/>
<path d="M116.285 227.714H109.143V231.286H116.285V227.714Z" fill="#FFE939"/>
<path d="M119.857 227.714H116.285V231.286H119.857V227.714Z" fill="#FB4694"/>
<path d="M127 227.714H119.857V231.286H127V227.714Z" fill="#FFE939"/>
<path d="M130.571 227.714H127V231.286H130.571V227.714Z" fill="#FB4694"/>
<path d="M137.715 227.714H130.572V231.286H137.715V227.714Z" fill="#FFE939"/>
<path d="M141.286 227.714H137.715V231.286H141.286V227.714Z" fill="#FB4694"/>
<path d="M148.428 227.714H141.285V231.286H148.428V227.714Z" fill="#FFE939"/>
<path d="M151.999 227.714H148.428V231.286H151.999V227.714Z" fill="#FB4694"/>
<path d="M159.143 227.714H152V231.286H159.143V227.714Z" fill="#FFE939"/>
<path d="M177 227.714H159.143V231.286H177V227.714Z" fill="#FB4694"/>
<path d="M162.714 231.286H91.2852V234.857H162.714V231.286Z" fill="#FB4694"/>
<path d="M144.857 234.857H109.143V238.429H144.857V234.857Z" fill="#FB4694"/>
<path d="M31.8256 34H-2.95703V38.3478H31.8256V34Z" fill="#395ED1"/>
<path d="M18.7823 38.3478H-7.30469V42.6956H18.7823V38.3478Z" fill="#395ED1"/>
<path d="M23.131 38.3478H18.7832V42.6956H23.131V38.3478Z" fill="#FFC925"/>
<path d="M40.5222 38.3478H23.1309V42.6956H40.5222V38.3478Z" fill="#395ED1"/>
<path d="M14.4339 42.6957H5.73828V47.0435H14.4339V42.6957Z" fill="#395ED1"/>
<path d="M27.479 42.6957H14.4355V47.0435H27.479V42.6957Z" fill="#FFC925"/>
<path d="M44.8698 42.6957H27.4785V47.0435H44.8698V42.6957Z" fill="#395ED1"/>
<path d="M18.7835 47.0435H10.0879V51.3913H18.7835V47.0435Z" fill="#395ED1"/>
<path d="M23.131 47.0435H18.7832V51.3913H23.131V47.0435Z" fill="#FFC925"/>
<path d="M49.2178 47.0435H23.1309V51.3913H49.2178V47.0435Z" fill="#395ED1"/>
<path d="M5.73913 51.3914H-16V55.7392H5.73913V51.3914Z" fill="#FFC925"/>
<path d="M31.8269 51.3914H14.4355V55.7392H31.8269V51.3914Z" fill="#395ED1"/>
<path d="M36.174 51.3914H31.8262V55.7392H36.174V51.3914Z" fill="#FFC925"/>
<path d="M53.5651 51.3914H36.1738V55.7392H53.5651V51.3914Z" fill="#395ED1"/>
<path d="M1.39113 55.7391H-11.6523V60.087H1.39113V55.7391Z" fill="#FFC925"/>
<path d="M27.4789 55.7391H18.7832V60.087H27.4789V55.7391Z" fill="#395ED1"/>
<path d="M31.8263 55.7391H27.4785V60.087H31.8263V55.7391Z" fill="#FFC925"/>
<path d="M36.174 55.7391H31.8262V60.087H36.174V55.7391Z" fill="#395ED1"/>
<path d="M40.5217 55.7391H36.1738V60.087H40.5217V55.7391Z" fill="#FFC925"/>
<path d="M44.8693 55.7391H40.5215V60.087H44.8693V55.7391Z" fill="#395ED1"/>
<path d="M49.217 55.7391H44.8691V60.087H49.217V55.7391Z" fill="#FFC925"/>
<path d="M57.9124 55.7391H49.2168V60.087H57.9124V55.7391Z" fill="#395ED1"/>
<path d="M1.39079 60.0869H-2.95703V64.4347H1.39079V60.0869Z" fill="#FFC925"/>
<path d="M31.8265 60.0869H23.1309V64.4347H31.8265V60.0869Z" fill="#395ED1"/>
<path d="M36.174 60.0869H31.8262V64.4347H36.174V60.0869Z" fill="#FFC925"/>
<path d="M62.2608 60.0869H36.1738V64.4347H62.2608V60.0869Z" fill="#395ED1"/>
<path d="M66.6091 64.4348H23.1309V68.7826H66.6091V64.4348Z" fill="#395ED1"/>
<path d="M53.5658 68.7826H18.7832V73.1304H53.5658V68.7826Z" fill="#395ED1"/>
<path d="M57.9123 68.7826H53.5645V73.1304H57.9123V68.7826Z" fill="#FFC925"/>
<path d="M66.6078 68.7826H57.9121V73.1304H66.6078V68.7826Z" fill="#395ED1"/>
<path d="M23.131 73.1304H18.7832V77.4782H23.131V73.1304Z" fill="#395ED1"/>
<path d="M27.4787 73.1304H23.1309V77.4782H27.4787V73.1304Z" fill="#FFC925"/>
<path d="M49.2176 73.1304H27.4785V77.4782H49.2176V73.1304Z" fill="#395ED1"/>
<path d="M62.2603 73.1304H49.2168V77.4782H62.2603V73.1304Z" fill="#FFC925"/>
<path d="M70.9574 73.1304H62.2617V77.4782H70.9574V73.1304Z" fill="#395ED1"/>
<path d="M53.5658 77.4783H18.7832V81.8261H53.5658V77.4783Z" fill="#395ED1"/>
<path d="M57.9123 77.4783H53.5645V81.8261H57.9123V77.4783Z" fill="#FFC925"/>
<path d="M70.9556 77.4783H57.9121V81.8261H70.9556V77.4783Z" fill="#395ED1"/>
<path d="M36.1745 81.826H18.7832V86.1739H36.1745V81.826Z" fill="#395ED1"/>
<path d="M40.5217 81.826H36.1738V86.1739H40.5217V81.826Z" fill="#FFC925"/>
<path d="M70.9563 81.826H40.5215V86.1739H70.9563V81.826Z" fill="#395ED1"/>
<path d="M70.9573 86.174H14.4355V90.5218H70.9573V86.174Z" fill="#395ED1"/>
<path d="M70.9575 90.5217H10.0879V94.8696H70.9575V90.5217Z" fill="#395ED1"/>
<path d="M36.1731 94.8695H5.73828V99.2173H36.1731V94.8695Z" fill="#395ED1"/>
<path d="M57.913 94.8695H36.1738V99.2173H57.913V94.8695Z" fill="#1F1D29"/>
<path d="M66.6078 94.8695H57.9121V99.2173H66.6078V94.8695Z" fill="#395ED1"/>
<path d="M75.3038 99.2174H-2.95703V103.565H75.3038V99.2174Z" fill="#00499C"/>
<path d="M83.9998 103.565H-11.6523V107.913H83.9998V103.565Z" fill="#00499C"/>
<path d="M7.9994 389H-3.53906V392.846H7.9994V389Z" fill="#C16710"/>
<path d="M11.8462 389H8V392.846H11.8462V389Z" fill="#70E890"/>
<path d="M19.538 389H11.8457V392.846H19.538V389Z" fill="#C16710"/>
<path d="M0.307993 392.846H-11.2305V396.692H0.307993V392.846Z" fill="#C16710"/>
<path d="M4.15475 392.846H0.308594V396.692H4.15475V392.846Z" fill="#70E890"/>
<path d="M8.00045 392.846H4.1543V396.692H8.00045V392.846Z" fill="#C16710"/>
<path d="M11.8462 392.846H8V396.692H11.8462V392.846Z" fill="#70E890"/>
<path d="M27.2303 392.846H11.8457V396.692H27.2303V392.846Z" fill="#C16710"/>
<path d="M0.307091 396.692H-3.53906V400.538H0.307091V396.692Z" fill="#C16710"/>
<path d="M4.15475 396.692H0.308594V400.538H4.15475V396.692Z" fill="#FFF0BE"/>
<path d="M8.00045 396.692H4.1543V400.538H8.00045V396.692Z" fill="#70E890"/>
<path d="M11.8462 396.692H8V400.538H11.8462V396.692Z" fill="#FFF0BE"/>
<path d="M15.6919 396.692H11.8457V400.538H15.6919V396.692Z" fill="#C16710"/>
<path d="M19.5376 396.692H15.6914V400.538H19.5376V396.692Z" fill="#70E890"/>
<path d="M27.2314 396.692H19.5391V400.538H27.2314V396.692Z" fill="#C16710"/>
<path d="M31.0766 396.692H27.2305V400.538H31.0766V396.692Z" fill="#70E890"/>
<path d="M34.9223 396.692H31.0762V400.538H34.9223V396.692Z" fill="#C16710"/>
<path d="M4.1537 400.538H-7.38477V404.385H4.1537V400.538Z" fill="#70E890"/>
<path d="M8.00045 400.538H4.1543V404.385H8.00045V400.538Z" fill="#AE3208"/>
<path d="M15.6923 400.538H8V404.385H15.6923V400.538Z" fill="#FFF0BE"/>
<path d="M27.2299 400.538H15.6914V404.385H27.2299V400.538Z" fill="#70E890"/>
<path d="M38.7689 400.538H27.2305V404.385H38.7689V400.538Z" fill="#C16710"/>
<path d="M23.3845 404.385H-7.38477V408.231H23.3845V404.385Z" fill="#E7A32C"/>
<path d="M27.2309 404.385H23.3848V408.231H27.2309V404.385Z" fill="#FFF0BE"/>
<path d="M38.7689 404.385H27.2305V408.231H38.7689V404.385Z" fill="#C16710"/>
<path d="M0.307091 408.231H-3.53906V412.077H0.307091V408.231Z" fill="#D08B11"/>
<path d="M11.8471 408.231H0.308594V412.077H11.8471V408.231Z" fill="#E7A32C"/>
<path d="M15.6919 408.231H11.8457V412.077H15.6919V408.231Z" fill="#D08B11"/>
<path d="M23.3837 408.231H15.6914V412.077H23.3837V408.231Z" fill="#E7A32C"/>
<path d="M31.0771 408.231H23.3848V412.077H31.0771V408.231Z" fill="#AE3208"/>
<path d="M38.7685 408.231H31.0762V412.077H38.7685V408.231Z" fill="#70E890"/>
<path d="M46.4618 408.231H38.7695V412.077H46.4618V408.231Z" fill="#C16710"/>
<path d="M4.1531 412.077H-18.9238V415.923H4.1531V412.077Z" fill="#E7A32C"/>
<path d="M8.00045 412.077H4.1543V415.923H8.00045V412.077Z" fill="#D08B11"/>
<path d="M34.9231 412.077H8V415.923H34.9231V412.077Z" fill="#E7A32C"/>
<path d="M46.4623 412.077H34.9238V415.923H46.4623V412.077Z" fill="#C16710"/>
<path d="M27.2305 415.923H-22.7695V419.769H27.2305V415.923Z" fill="#E7A32C"/>
<path d="M31.0766 415.923H27.2305V419.769H31.0766V415.923Z" fill="#D08B11"/>
<path d="M38.7685 415.923H31.0762V419.769H38.7685V415.923Z" fill="#E7A32C"/>
<path d="M42.6157 415.923H38.7695V419.769H42.6157V415.923Z" fill="#70E890"/>
<path d="M46.4614 415.923H42.6152V419.769H46.4614V415.923Z" fill="#C16710"/>
<path d="M38.77 419.769H-15.0762V423.615H38.77V419.769Z" fill="#E7A32C"/>
<path d="M42.6157 419.769H38.7695V423.615H42.6157V419.769Z" fill="#AE3208"/>
<path d="M46.4614 419.769H42.6152V423.615H46.4614V419.769Z" fill="#FFF0BE"/>
<path d="M50.3071 419.769H46.4609V423.615H50.3071V419.769Z" fill="#C16710"/>
<path d="M46.4621 423.615H-30.4609V427.462H46.4621V423.615Z" fill="#E7A32C"/>
<path d="M50.3071 423.615H46.4609V427.462H50.3071V423.615Z" fill="#C16710"/>
<path d="M34.9234 427.462H-11.2305V431.308H34.9234V427.462Z" fill="#E7A32C"/>
<path d="M38.77 427.462H34.9238V431.308H38.77V427.462Z" fill="#D08B11"/>
<path d="M46.4618 427.462H38.7695V431.308H46.4618V427.462Z" fill="#E7A32C"/>
<path d="M54.1532 427.462H46.4609V431.308H54.1532V427.462Z" fill="#70E890"/>
<path d="M46.4621 431.308H-30.4609V435.154H46.4621V431.308Z" fill="#E7A32C"/>
<path d="M50.3071 431.308H46.4609V435.154H50.3071V431.308Z" fill="#AE3208"/>
<path d="M31.0762 435.154H-18.9238V439H31.0762V435.154Z" fill="#E7A32C"/>
<path d="M34.9223 435.154H31.0762V439H34.9223V435.154Z" fill="#D08B11"/>
<path d="M38.77 435.154H34.9238V439H38.77V435.154Z" fill="#E7A32C"/>
<path d="M42.6157 435.154H38.7695V439H42.6157V435.154Z" fill="#D08B11"/>
<path d="M50.3075 435.154H42.6152V439H50.3075V435.154Z" fill="#E7A32C"/>
<path d="M50.3068 439H-34.3086V442.846H50.3068V439Z" fill="#E7A32C"/>
<path d="M54.1547 439H50.3086V442.846H54.1547V439Z" fill="#70E890"/>
<path d="M8.0003 442.846H-11.2305V446.692H8.0003V442.846Z" fill="#E7A32C"/>
<path d="M11.8462 442.846H8V446.692H11.8462V442.846Z" fill="#D08B11"/>
<path d="M38.7688 442.846H11.8457V446.692H38.7688V442.846Z" fill="#E7A32C"/>
<path d="M42.6157 442.846H38.7695V446.692H42.6157V442.846Z" fill="#D08B11"/>
<path d="M50.3075 442.846H42.6152V446.692H50.3075V442.846Z" fill="#E7A32C"/>
<path d="M58.0005 442.846H54.1543V446.692H58.0005V442.846Z" fill="#70E890"/>
<path d="M46.4621 446.692H-30.4609V450.538H46.4621V446.692Z" fill="#E7A32C"/>
<path d="M50.3071 446.692H46.4609V450.538H50.3071V446.692Z" fill="#70E890"/>
<path d="M0.666016 167.333H-24.334V171.5H0.666016V167.333Z" fill="white"/>
<path d="M0.666016 171.5H-24.334V175.667H0.666016V171.5Z" fill="white"/>
<path d="M4.83268 175.667H-36.834V179.833H4.83268V175.667Z" fill="white"/>
<path d="M0.666667 179.833H-3.5V184H0.666667V179.833Z" fill="#5FD4FB"/>
<path d="M4.83268 179.833H0.666016V184H4.83268V179.833Z" fill="white"/>
<path d="M9 184H-41V188.167H9V184Z" fill="white"/>
<path d="M9 188.167H-41V192.333H9V188.167Z" fill="white"/>
<path d="M13.1673 192.333H-45.166V196.5H13.1673V192.333Z" fill="white"/>
<path d="M13.1673 196.5H-45.166V200.667H13.1673V196.5Z" fill="white"/>
<path d="M0.667317 200.667H-7.66602V204.833H0.667317V200.667Z" fill="#34AC80"/>
<path d="M13.166 200.667H0.666016V204.833H13.166V200.667Z" fill="white"/>
<path d="M17.3327 200.667H13.166V204.833H17.3327V200.667Z" fill="#34AC80"/>
<path d="M4.83268 204.833H-11.834V209H4.83268V204.833Z" fill="#34AC80"/>
<path d="M9.00065 204.833H4.83398V209H9.00065V204.833Z" fill="white"/>
<path d="M17.3333 204.833H9V209H17.3333V204.833Z" fill="#34AC80"/>
<path d="M4.83268 209H-11.834V213.167H4.83268V209Z" fill="#34AC80"/>
<path d="M13.1673 209H4.83398V213.167H13.1673V209Z" fill="white"/>
<path d="M21.4993 209H13.166V213.167H21.4993V209Z" fill="#34AC80"/>
<path d="M4.83268 213.167H-36.834V217.333H4.83268V213.167Z" fill="#34AC80"/>
<path d="M13.1673 213.167H4.83398V217.333H13.1673V213.167Z" fill="white"/>
<path d="M21.4993 213.167H13.166V217.333H21.4993V213.167Z" fill="#34AC80"/>
<path d="M4.83268 217.333H-11.834V221.5H4.83268V217.333Z" fill="#34AC80"/>
<path d="M13.1673 217.333H4.83398V221.5H13.1673V217.333Z" fill="white"/>
<path d="M25.666 217.333H13.166V221.5H25.666V217.333Z" fill="#34AC80"/>
<path d="M13.166 221.5H-49.334V225.667H13.166V221.5Z" fill="#34AC80"/>
<path d="M17.3327 221.5H13.166V225.667H17.3327V221.5Z" fill="white"/>
<path d="M29.834 221.5H17.334V225.667H29.834V221.5Z" fill="#34AC80"/>
<path d="M21.5007 225.667H-7.66602V229.833H21.5007V225.667Z" fill="#34AC80"/>
<path d="M25.6667 225.667H21.5V229.833H25.6667V225.667Z" fill="white"/>
<path d="M33.9993 225.667H25.666V229.833H33.9993V225.667Z" fill="#34AC80"/>
<path d="M29.8327 229.833H-61.834V234H29.8327V229.833Z" fill="#34AC80"/>
<path d="M21.5 234H-3.5V238.167H21.5V234Z" fill="#34AC80"/>
<path d="M345.667 228H324.834V232.167H345.667V228Z" fill="#F3322C"/>
<path d="M383.167 228H362.334V232.167H383.167V228Z" fill="#F3322C"/>
<path d="M354 232.167H316.5V236.333H354V232.167Z" fill="#F3322C"/>
<path d="M391.499 232.167H358.166V236.333H391.499V232.167Z" fill="#F3322C"/>
<path d="M337.334 236.333H312.334V240.5H337.334V236.333Z" fill="#F3322C"/>
<path d="M345.667 236.333H337.334V240.5H345.667V236.333Z" fill="white"/>
<path d="M370.666 236.333H345.666V240.5H370.666V236.333Z" fill="#F3322C"/>
<path d="M378.999 236.333H370.666V240.5H378.999V236.333Z" fill="white"/>
<path d="M395.667 236.333H379V240.5H395.667V236.333Z" fill="#F3322C"/>
<path d="M345.666 240.5H308.166V244.667H345.666V240.5Z" fill="#F3322C"/>
<path d="M349.833 240.5H345.666V244.667H349.833V240.5Z" fill="white"/>
<path d="M370.667 240.5H349.834V244.667H370.667V240.5Z" fill="#F3322C"/>
<path d="M378.999 240.5H370.666V244.667H378.999V240.5Z" fill="white"/>
<path d="M383.167 240.5H379V244.667H383.167V240.5Z" fill="#F3322C"/>
<path d="M387.333 240.5H383.166V244.667H387.333V240.5Z" fill="white"/>
<path d="M399.834 240.5H387.334V244.667H399.834V240.5Z" fill="#F3322C"/>
<path d="M387.333 244.667H308.166V248.833H387.333V244.667Z" fill="#F3322C"/>
<path d="M391.501 244.667H387.334V248.833H391.501V244.667Z" fill="white"/>
<path d="M399.833 244.667H391.5V248.833H399.833V244.667Z" fill="#F3322C"/>
<path d="M387.333 248.833H304V253H387.333V248.833Z" fill="#F3322C"/>
<path d="M391.501 248.833H387.334V253H391.501V248.833Z" fill="white"/>
<path d="M404 248.833H391.5V253H404V248.833Z" fill="#F3322C"/>
<path d="M404 253H304V257.167H404V253Z" fill="#F3322C"/>
<path d="M404 257.167H304V261.333H404V257.167Z" fill="#F3322C"/>
<path d="M404 261.333H304V265.5H404V261.333Z" fill="#F3322C"/>
<path d="M399.833 265.5H308.166V269.667H399.833V265.5Z" fill="#F3322C"/>
<path d="M399.833 269.667H308.166V273.833H399.833V269.667Z" fill="#F3322C"/>
<path d="M395.667 273.833H312.334V278H395.667V273.833Z" fill="#F3322C"/>
<path d="M395.667 278H312.334V282.167H395.667V278Z" fill="#F3322C"/>
<path d="M391.5 282.167H316.5V286.333H391.5V282.167Z" fill="#F3322C"/>
<path d="M349.833 286.333H320.666V290.5H349.833V286.333Z" fill="#F3322C"/>
<path d="M358.167 286.333H349.834V290.5H358.167V286.333Z" fill="white"/>
<path d="M362.333 286.333H358.166V290.5H362.333V286.333Z" fill="black"/>
<path d="M387.334 286.333H362.334V290.5H387.334V286.333Z" fill="#F3322C"/>
<path d="M383.167 290.5H324.834V294.667H383.167V290.5Z" fill="#F3322C"/>
<path d="M379 294.667H329V298.833H379V294.667Z" fill="#F3322C"/>
<path d="M374.833 298.833H333.166V303H374.833V298.833Z" fill="#F3322C"/>
<path d="M366.5 303H341.5V307.167H366.5V303Z" fill="#F3322C"/>
<path d="M358.167 307.167H349.834V311.333H358.167V307.167Z" fill="#F3322C"/>
<path d="M1463.46 142.231H1436.54V146.077H1463.46V142.231Z" fill="#CD916D"/>
<path d="M1440.38 146.077H1432.69V149.923H1440.38V146.077Z" fill="#CD916D"/>
<path d="M1459.61 149.923H1428.85V153.769H1459.61V149.923Z" fill="#CD916D"/>
<path d="M1521.15 153.769H1428.85V157.615H1521.15V153.769Z" fill="#CD916D"/>
<path d="M1521.15 157.615H1428.85V161.462H1521.15V157.615Z" fill="#D596A6"/>
<path d="M1521.15 161.462H1428.85V165.308H1521.15V161.462Z" fill="#E11833"/>
<path d="M1432.69 165.308H1428.85V169.154H1432.69V165.308Z" fill="#FFE939"/>
<path d="M1455.77 165.308H1432.69V169.154H1455.77V165.308Z" fill="#E11833"/>
<path d="M1428.85 169.154H1425V173H1428.85V169.154Z" fill="#4BEA69"/>
<path d="M1521.15 169.154H1428.85V173H1521.15V169.154Z" fill="#FFE939"/>
<path d="M1436.54 173H1425V176.846H1436.54V173Z" fill="#4BEA69"/>
<path d="M1459.62 173H1436.54V176.846H1459.62V173Z" fill="#FFE939"/>
<path d="M1444.23 176.846H1428.85V180.692H1444.23V176.846Z" fill="#4BEA69"/>
<path d="M1459.62 180.692H1436.54V184.538H1459.62V180.692Z" fill="#A86F60"/>
<path d="M1248.82 53H1225.29V58.8824H1248.82V53Z" fill="#A3BAED"/>
<path d="M1225.29 58.8823H1207.65V64.7647H1225.29V58.8823Z" fill="#A3BAED"/>
<path d="M1231.18 58.8823H1225.29V64.7647H1231.18V58.8823Z" fill="#FFF0EE"/>
<path d="M1248.82 58.8823H1231.18V64.7647H1248.82V58.8823Z" fill="#A3BAED"/>
<path d="M1254.71 58.8823H1248.82V64.7647H1254.71V58.8823Z" fill="#FFF0EE"/>
<path d="M1272.35 58.8823H1254.71V64.7647H1272.35V58.8823Z" fill="#A3BAED"/>
<path d="M1201.77 64.7646H1195.88V70.647H1201.77V64.7646Z" fill="#A3BAED"/>
<path d="M1207.65 64.7646H1201.77V70.647H1207.65V64.7646Z" fill="#FFF0EE"/>
<path d="M1237.06 64.7646H1207.65V70.647H1237.06V64.7646Z" fill="#A3BAED"/>
<path d="M1242.94 64.7646H1237.06V70.647H1242.94V64.7646Z" fill="#FFF0EE"/>
<path d="M1278.24 64.7646H1242.94V70.647H1278.24V64.7646Z" fill="#A3BAED"/>
<path d="M1284.12 64.7646H1278.23V70.647H1284.12V64.7646Z" fill="#FFF0EE"/>
<path d="M1219.41 70.6471H1195.88V76.5294H1219.41V70.6471Z" fill="#A3BAED"/>
<path d="M1225.29 70.6471H1219.41V76.5294H1225.29V70.6471Z" fill="#FFF0EE"/>
<path d="M1231.18 70.6471H1225.29V76.5294H1231.18V70.6471Z" fill="#A3BAED"/>
<path d="M1248.82 70.6471H1231.18V76.5294H1248.82V70.6471Z" fill="#FFF0EE"/>
<path d="M1260.59 70.6471H1248.82V76.5294H1260.59V70.6471Z" fill="#A3BAED"/>
<path d="M1266.47 70.6471H1260.59V76.5294H1266.47V70.6471Z" fill="#FFF0EE"/>
<path d="M1284.12 70.6471H1266.47V76.5294H1284.12V70.6471Z" fill="#A3BAED"/>
<path d="M1207.65 76.5294H1190V82.4118H1207.65V76.5294Z" fill="#A3BAED"/>
<path d="M1213.53 76.5294H1207.65V82.4118H1213.53V76.5294Z" fill="#FFF0EE"/>
<path d="M1219.41 76.5294H1213.53V82.4118H1219.41V76.5294Z" fill="#A3BAED"/>
<path d="M1225.29 76.5294H1219.41V82.4118H1225.29V76.5294Z" fill="#7E5243"/>
<path d="M1237.06 76.5294H1225.29V82.4118H1237.06V76.5294Z" fill="#FFF0EE"/>
<path d="M1242.94 76.5294H1237.06V82.4118H1242.94V76.5294Z" fill="#7E5243"/>
<path d="M1254.71 76.5294H1242.94V82.4118H1254.71V76.5294Z" fill="#FFF0EE"/>
<path d="M1272.35 76.5294H1254.71V82.4118H1272.35V76.5294Z" fill="#A3BAED"/>
<path d="M1278.24 76.5294H1272.35V82.4118H1278.24V76.5294Z" fill="#FFF0EE"/>
<path d="M1290 76.5294H1278.23V82.4118H1290V76.5294Z" fill="#A3BAED"/>
<path d="M1195.88 82.4117H1190V88.2941H1195.88V82.4117Z" fill="#FFF0EE"/>
<path d="M1219.41 82.4117H1195.88V88.2941H1219.41V82.4117Z" fill="#A3BAED"/>
<path d="M1231.18 82.4117H1219.41V88.2941H1231.18V82.4117Z" fill="#FFF0EE"/>
<path d="M1248.82 82.4117H1231.18V88.2941H1248.82V82.4117Z" fill="#7E5243"/>
<path d="M1260.59 82.4117H1248.82V88.2941H1260.59V82.4117Z" fill="#FFF0EE"/>
<path d="M1290 82.4117H1260.59V88.2941H1290V82.4117Z" fill="#A3BAED"/>
<path d="M1213.53 88.2941H1190V94.1764H1213.53V88.2941Z" fill="#A3BAED"/>
<path d="M1225.29 88.2941H1213.53V94.1764H1225.29V88.2941Z" fill="#FFF0EE"/>
<path d="M1254.71 88.2941H1225.29V94.1764H1254.71V88.2941Z" fill="#7E5243"/>
<path d="M1266.47 88.2941H1254.71V94.1764H1266.47V88.2941Z" fill="#FFF0EE"/>
<path d="M1284.12 88.2941H1266.47V94.1764H1284.12V88.2941Z" fill="#A3BAED"/>
<path d="M1290 88.2941H1284.12V94.1764H1290V88.2941Z" fill="#FFF0EE"/>
<path d="M1207.65 94.1765H1190V100.059H1207.65V94.1765Z" fill="#A3BAED"/>
<path d="M1219.41 94.1765H1207.65V100.059H1219.41V94.1765Z" fill="#FFF0EE"/>
<path d="M1237.06 94.1765H1219.41V100.059H1237.06V94.1765Z" fill="#7E5243"/>
<path d="M1242.94 94.1765H1237.06V100.059H1242.94V94.1765Z" fill="#FFC110"/>
<path d="M1248.82 94.1765H1242.94V100.059H1248.82V94.1765Z" fill="#7E5243"/>
<path d="M1254.71 94.1765H1248.82V100.059H1254.71V94.1765Z" fill="#FFC110"/>
<path d="M1260.59 94.1765H1254.71V100.059H1260.59V94.1765Z" fill="#7E5243"/>
<path d="M1272.35 94.1765H1260.59V100.059H1272.35V94.1765Z" fill="#FFF0EE"/>
<path d="M1290 94.1765H1272.35V100.059H1290V94.1765Z" fill="#A3BAED"/>
<path d="M1213.53 100.059H1190V105.941H1213.53V100.059Z" fill="#A3BAED"/>
<path d="M1266.47 100.059H1213.53V105.941H1266.47V100.059Z" fill="#7E5243"/>
<path d="M1290 100.059H1266.47V105.941H1290V100.059Z" fill="#A3BAED"/>
<path d="M1213.53 105.941H1190V111.824H1213.53V105.941Z" fill="#A3BAED"/>
<path d="M1237.06 105.941H1213.53V111.824H1237.06V105.941Z" fill="#7E5243"/>
<path d="M1242.94 105.941H1237.06V111.824H1242.94V105.941Z" fill="#FFC110"/>
<path d="M1248.82 105.941H1242.94V111.824H1248.82V105.941Z" fill="#7E5243"/>
<path d="M1254.71 105.941H1248.82V111.824H1254.71V105.941Z" fill="#FFC110"/>
<path d="M1266.47 105.941H1254.71V111.824H1266.47V105.941Z" fill="#7E5243"/>
<path d="M1290 105.941H1266.47V111.824H1290V105.941Z" fill="#A3BAED"/>
<path d="M1213.53 111.823H1190V117.706H1213.53V111.823Z" fill="#A3BAED"/>
<path d="M1266.47 111.823H1213.53V117.706H1266.47V111.823Z" fill="#7E5243"/>
<path d="M1272.35 111.823H1266.47V117.706H1272.35V111.823Z" fill="#FFF0EE"/>
<path d="M1290 111.823H1272.35V117.706H1290V111.823Z" fill="#A3BAED"/>
<path d="M1207.65 117.706H1190V123.588H1207.65V117.706Z" fill="#A3BAED"/>
<path d="M1213.53 117.706H1207.65V123.588H1213.53V117.706Z" fill="#FFF0EE"/>
<path d="M1266.47 117.706H1213.53V123.588H1266.47V117.706Z" fill="#7E5243"/>
<path d="M1278.24 117.706H1266.47V123.588H1278.24V117.706Z" fill="#FFF0EE"/>
<path d="M1290 117.706H1278.23V123.588H1290V117.706Z" fill="#A3BAED"/>
<path d="M1290 123.588H1190V129.471H1290V123.588Z" fill="#FFF0EE"/>
<path d="M1219.41 129.471H1195.88V135.353H1219.41V129.471Z" fill="#FFF0EE"/>
<path d="M1242.94 129.471H1219.41V135.353H1242.94V129.471Z" fill="#AE3208"/>
<path d="M1284.12 129.471H1242.94V135.353H1284.12V129.471Z" fill="#FFF0EE"/>
<path d="M1284.12 135.353H1195.88V141.235H1284.12V135.353Z" fill="#5A423F"/>
<path d="M1284.12 141.235H1195.88V147.118H1284.12V141.235Z" fill="#5A423F"/>
<path d="M1444.78 339H1378.11V344.556H1444.78V339Z" fill="#B87B11"/>
<path d="M1417 344.556H1372.55V350.111H1417V344.556Z" fill="#FFC110"/>
<path d="M1422.56 344.556H1417V350.111H1422.56V344.556Z" fill="#EED811"/>
<path d="M1428.11 344.556H1422.55V350.111H1428.11V344.556Z" fill="#FFC110"/>
<path d="M1439.22 344.556H1428.11V350.111H1439.22V344.556Z" fill="#EED811"/>
<path d="M1450.33 344.556H1439.22V350.111H1450.33V344.556Z" fill="#FFC110"/>
<path d="M1372.56 350.111H1367V355.667H1372.56V350.111Z" fill="#FFC110"/>
<path d="M1450.33 350.111H1372.55V355.667H1450.33V350.111Z" fill="#FFF0EE"/>
<path d="M1372.56 355.667H1367V361.222H1372.56V355.667Z" fill="#FFC110"/>
<path d="M1405.89 355.667H1372.55V361.222H1405.89V355.667Z" fill="#FFF0EE"/>
<path d="M1417 355.667H1405.89V361.222H1417V355.667Z" fill="#CEC189"/>
<path d="M1450.33 355.667H1417V361.222H1450.33V355.667Z" fill="#FFF0EE"/>
<path d="M1372.56 361.222H1367V366.778H1372.56V361.222Z" fill="#FFC110"/>
<path d="M1389.22 361.222H1372.55V366.778H1389.22V361.222Z" fill="#FFF0EE"/>
<path d="M1394.78 361.222H1389.22V366.778H1394.78V361.222Z" fill="#CEC189"/>
<path d="M1428.11 361.222H1394.78V366.778H1428.11V361.222Z" fill="#FFF0EE"/>
<path d="M1433.67 361.222H1428.11V366.778H1433.67V361.222Z" fill="#CEC189"/>
<path d="M1450.33 361.222H1433.67V366.778H1450.33V361.222Z" fill="#FFF0EE"/>
<path d="M1372.56 366.778H1367V372.333H1372.56V366.778Z" fill="#FFC110"/>
<path d="M1450.33 366.778H1372.55V372.333H1450.33V366.778Z" fill="#FFF0EE"/>
<path d="M1372.56 372.333H1367V377.889H1372.56V372.333Z" fill="#FFC110"/>
<path d="M1378.11 372.333H1372.55V377.889H1378.11V372.333Z" fill="#FFF0EE"/>
<path d="M1383.67 372.333H1378.11V377.889H1383.67V372.333Z" fill="#CEC189"/>
<path d="M1439.22 372.333H1383.67V377.889H1439.22V372.333Z" fill="#FFF0EE"/>
<path d="M1444.78 372.333H1439.22V377.889H1444.78V372.333Z" fill="#CEC189"/>
<path d="M1372.56 377.889H1367V383.444H1372.56V377.889Z" fill="#FFC110"/>
<path d="M1450.33 377.889H1372.55V383.444H1450.33V377.889Z" fill="#FFF0EE"/>
<path d="M1372.56 383.444H1367V389H1372.56V383.444Z" fill="#FFC110"/>
<path d="M1450.33 383.444H1372.55V389H1450.33V383.444Z" fill="#FFF0EE"/>
<path d="M1372.56 389H1367V394.556H1372.56V389Z" fill="#FFC110"/>
<path d="M1450.33 389H1372.55V394.556H1450.33V389Z" fill="#FFF0EE"/>
<path d="M1372.56 394.556H1367V400.111H1372.56V394.556Z" fill="#FFC110"/>
<path d="M1450.33 394.556H1372.55V400.111H1450.33V394.556Z" fill="#FFF0EE"/>
<path d="M1372.56 400.111H1367V405.667H1372.56V400.111Z" fill="#FFC110"/>
<path d="M1450.33 400.111H1372.55V405.667H1450.33V400.111Z" fill="#FFF0EE"/>
<path d="M1372.56 405.667H1367V411.222H1372.56V405.667Z" fill="#FFC110"/>
<path d="M1394.78 405.667H1372.55V411.222H1394.78V405.667Z" fill="#FFF0EE"/>
<path d="M1400.33 405.667H1394.78V411.222H1400.33V405.667Z" fill="#CEC189"/>
<path d="M1422.56 405.667H1400.33V411.222H1422.56V405.667Z" fill="#FFF0EE"/>
<path d="M1428.11 405.667H1422.55V411.222H1428.11V405.667Z" fill="#CEC189"/>
<path d="M1450.33 405.667H1428.11V411.222H1450.33V405.667Z" fill="#FFF0EE"/>
<path d="M1372.56 411.222H1367V416.778H1372.56V411.222Z" fill="#FFC110"/>
<path d="M1450.33 411.222H1372.55V416.778H1450.33V411.222Z" fill="#FFF0EE"/>
<path d="M1372.56 416.778H1367V422.333H1372.56V416.778Z" fill="#FFC110"/>
<path d="M1405.89 416.778H1372.55V422.333H1405.89V416.778Z" fill="#FFF0EE"/>
<path d="M1417 416.778H1405.89V422.333H1417V416.778Z" fill="#CEC189"/>
<path d="M1450.33 416.778H1417V422.333H1450.33V416.778Z" fill="#FFF0EE"/>
<path d="M1372.56 422.333H1367V427.889H1372.56V422.333Z" fill="#FFC110"/>
<path d="M1450.33 422.333H1372.55V427.889H1450.33V422.333Z" fill="#FFF0EE"/>
<path d="M1450.33 427.889H1372.55V433.444H1450.33V427.889Z" fill="#FFC110"/>
<path d="M1444.78 433.444H1378.11V439H1444.78V433.444Z" fill="#B87B11"/>
<path d="M1277 296H1195.18V300.545H1277V296Z" fill="#C5B9A1"/>
<path d="M1277 300.545H1195.18V305.091H1277V300.545Z" fill="#C5B9A1"/>
<path d="M1204.27 305.091H1186.09V309.636H1204.27V305.091Z" fill="#C5B9A1"/>
<path d="M1208.82 305.091H1204.27V309.636H1208.82V305.091Z" fill="#FDF8FF"/>
<path d="M1217.91 305.091H1208.82V309.636H1217.91V305.091Z" fill="#1929F4"/>
<path d="M1222.45 305.091H1217.91V309.636H1222.45V305.091Z" fill="#FDF8FF"/>
<path d="M1267.91 305.091H1222.46V309.636H1267.91V305.091Z" fill="#1929F4"/>
<path d="M1277 305.091H1267.91V309.636H1277V305.091Z" fill="#C5B9A1"/>
<path d="M1204.27 309.636H1177V314.182H1204.27V309.636Z" fill="#C5B9A1"/>
<path d="M1213.36 309.636H1204.27V314.182H1213.36V309.636Z" fill="#1929F4"/>
<path d="M1217.91 309.636H1213.36V314.182H1217.91V309.636Z" fill="#FDF8FF"/>
<path d="M1267.91 309.636H1217.91V314.182H1267.91V309.636Z" fill="#1929F4"/>
<path d="M1277 309.636H1267.91V314.182H1277V309.636Z" fill="#C5B9A1"/>
<path d="M1204.27 314.182H1177V318.727H1204.27V314.182Z" fill="#C5B9A1"/>
<path d="M1208.82 314.182H1204.27V318.727H1208.82V314.182Z" fill="#FDF8FF"/>
<path d="M1217.91 314.182H1208.82V318.727H1217.91V314.182Z" fill="#1929F4"/>
<path d="M1222.45 314.182H1217.91V318.727H1222.45V314.182Z" fill="#FDF8FF"/>
<path d="M1267.91 314.182H1222.46V318.727H1267.91V314.182Z" fill="#1929F4"/>
<path d="M1277 314.182H1267.91V318.727H1277V314.182Z" fill="#C5B9A1"/>
<path d="M1204.27 318.727H1177V323.273H1204.27V318.727Z" fill="#C5B9A1"/>
<path d="M1267.91 318.727H1204.27V323.273H1267.91V318.727Z" fill="#1929F4"/>
<path d="M1277 318.727H1267.91V323.273H1277V318.727Z" fill="#C5B9A1"/>
<path d="M1204.27 323.273H1177V327.818H1204.27V323.273Z" fill="#C5B9A1"/>
<path d="M1267.91 323.273H1204.27V327.818H1267.91V323.273Z" fill="#1929F4"/>
<path d="M1277 323.273H1267.91V327.818H1277V323.273Z" fill="#C5B9A1"/>
<path d="M1204.27 327.818H1177V332.364H1204.27V327.818Z" fill="#C5B9A1"/>
<path d="M1267.91 327.818H1204.27V332.364H1267.91V327.818Z" fill="#1929F4"/>
<path d="M1277 327.818H1267.91V332.364H1277V327.818Z" fill="#C5B9A1"/>
<path d="M1204.27 332.364H1177V336.909H1204.27V332.364Z" fill="#C5B9A1"/>
<path d="M1267.91 332.364H1204.27V336.909H1267.91V332.364Z" fill="#1929F4"/>
<path d="M1277 332.364H1267.91V336.909H1277V332.364Z" fill="#C5B9A1"/>
<path d="M1186.09 336.909H1177V341.455H1186.09V336.909Z" fill="#9D8E6E"/>
<path d="M1204.27 336.909H1186.09V341.455H1204.27V336.909Z" fill="#C5B9A1"/>
<path d="M1267.91 336.909H1204.27V341.455H1267.91V336.909Z" fill="#1929F4"/>
<path d="M1277 336.909H1267.91V341.455H1277V336.909Z" fill="#C5B9A1"/>
<path d="M1204.27 341.455H1177V346H1204.27V341.455Z" fill="#C5B9A1"/>
<path d="M1267.91 341.455H1204.27V346H1267.91V341.455Z" fill="#1929F4"/>
<path d="M1277 341.455H1267.91V346H1277V341.455Z" fill="#C5B9A1"/>
<path d="M1186.09 346H1177V350.545H1186.09V346Z" fill="#9D8E6E"/>
<path d="M1204.27 346H1186.09V350.545H1204.27V346Z" fill="#C5B9A1"/>
<path d="M1267.91 346H1204.27V350.545H1267.91V346Z" fill="#1929F4"/>
<path d="M1277 346H1267.91V350.545H1277V346Z" fill="#C5B9A1"/>
<path d="M1204.27 350.545H1177V355.091H1204.27V350.545Z" fill="#C5B9A1"/>
<path d="M1267.91 350.545H1204.27V355.091H1267.91V350.545Z" fill="#1929F4"/>
<path d="M1277 350.545H1267.91V355.091H1277V350.545Z" fill="#C5B9A1"/>
<path d="M1186.09 355.091H1177V359.636H1186.09V355.091Z" fill="#9D8E6E"/>
<path d="M1204.27 355.091H1186.09V359.636H1204.27V355.091Z" fill="#C5B9A1"/>
<path d="M1267.91 355.091H1204.27V359.636H1267.91V355.091Z" fill="#1929F4"/>
<path d="M1277 355.091H1267.91V359.636H1277V355.091Z" fill="#C5B9A1"/>
<path d="M1236.09 359.636H1177V364.182H1236.09V359.636Z" fill="#C5B9A1"/>
<path d="M1240.64 359.636H1236.09V364.182H1240.64V359.636Z" fill="black"/>
<path d="M1245.18 359.636H1240.64V364.182H1245.18V359.636Z" fill="#C5B9A1"/>
<path d="M1249.73 359.636H1245.18V364.182H1249.73V359.636Z" fill="black"/>
<path d="M1277 359.636H1249.73V364.182H1277V359.636Z" fill="#C5B9A1"/>
<path d="M1231.55 364.182H1186.09V368.727H1231.55V364.182Z" fill="#C5B9A1"/>
<path d="M1236.09 364.182H1231.54V368.727H1236.09V364.182Z" fill="black"/>
<path d="M1240.64 364.182H1236.09V368.727H1240.64V364.182Z" fill="#C5B9A1"/>
<path d="M1245.18 364.182H1240.64V368.727H1245.18V364.182Z" fill="black"/>
<path d="M1249.73 364.182H1245.18V368.727H1249.73V364.182Z" fill="#C5B9A1"/>
<path d="M1254.27 364.182H1249.73V368.727H1254.27V364.182Z" fill="black"/>
<path d="M1277 364.182H1254.27V368.727H1277V364.182Z" fill="#C5B9A1"/>
<path d="M1277 368.727H1195.18V373.273H1277V368.727Z" fill="#C5B9A1"/>
<path d="M1360.5 188H1335.5V192.167H1360.5V188Z" fill="#FF0E0E"/>
<path d="M1368.83 192.167H1327.17V196.333H1368.83V192.167Z" fill="#FF0E0E"/>
<path d="M1373 196.333H1323V200.5H1373V196.333Z" fill="#FF0E0E"/>
<path d="M1377.17 200.5H1318.83V204.667H1377.17V200.5Z" fill="#FF0E0E"/>
<path d="M1377.17 204.667H1318.83V208.833H1377.17V204.667Z" fill="#FF0E0E"/>
<path d="M1381.33 208.833H1314.67V213H1381.33V208.833Z" fill="#FF0E0E"/>
<path d="M1318.83 213H1314.67V217.167H1318.83V213Z" fill="#FF0E0E"/>
<path d="M1343.83 213H1318.83V217.167H1343.83V213Z" fill="#FFEF16"/>
<path d="M1352.17 213H1343.83V217.167H1352.17V213Z" fill="#FF0E0E"/>
<path d="M1377.17 213H1352.17V217.167H1377.17V213Z" fill="#FF1AD2"/>
<path d="M1381.33 213H1377.17V217.167H1381.33V213Z" fill="#FF0E0E"/>
<path d="M1314.67 217.167H1310.5V221.333H1314.67V217.167Z" fill="#0ADC4D"/>
<path d="M1343.83 217.167H1314.67V221.333H1343.83V217.167Z" fill="#FFEF16"/>
<path d="M1352.17 217.167H1343.83V221.333H1352.17V217.167Z" fill="white"/>
<path d="M1381.33 217.167H1352.17V221.333H1381.33V217.167Z" fill="#FF1AD2"/>
<path d="M1385.5 217.167H1381.33V221.333H1385.5V217.167Z" fill="#1929F4"/>
<path d="M1314.67 221.333H1306.33V225.5H1314.67V221.333Z" fill="#0ADC4D"/>
<path d="M1339.67 221.333H1314.67V225.5H1339.67V221.333Z" fill="#FFEF16"/>
<path d="M1356.33 221.333H1339.67V225.5H1356.33V221.333Z" fill="white"/>
<path d="M1381.33 221.333H1356.33V225.5H1381.33V221.333Z" fill="#FF1AD2"/>
<path d="M1389.67 221.333H1381.33V225.5H1389.67V221.333Z" fill="#1929F4"/>
<path d="M1314.67 225.5H1302.17V229.667H1314.67V225.5Z" fill="#0ADC4D"/>
<path d="M1335.5 225.5H1314.67V229.667H1335.5V225.5Z" fill="#FFEF16"/>
<path d="M1360.5 225.5H1335.5V229.667H1360.5V225.5Z" fill="white"/>
<path d="M1381.33 225.5H1360.5V229.667H1381.33V225.5Z" fill="#FF1AD2"/>
<path d="M1393.83 225.5H1381.33V229.667H1393.83V225.5Z" fill="#1929F4"/>
<path d="M1314.67 229.667H1302.17V233.833H1314.67V229.667Z" fill="#0ADC4D"/>
<path d="M1335.5 229.667H1314.67V233.833H1335.5V229.667Z" fill="#FFEF16"/>
<path d="M1360.5 229.667H1335.5V233.833H1360.5V229.667Z" fill="white"/>
<path d="M1381.33 229.667H1360.5V233.833H1381.33V229.667Z" fill="#FF1AD2"/>
<path d="M1393.83 229.667H1381.33V233.833H1393.83V229.667Z" fill="#1929F4"/>
<path d="M1318.83 233.833H1298V238H1318.83V233.833Z" fill="#0ADC4D"/>
<path d="M1331.33 233.833H1318.83V238H1331.33V233.833Z" fill="#FFEF16"/>
<path d="M1364.67 233.833H1331.33V238H1364.67V233.833Z" fill="white"/>
<path d="M1377.17 233.833H1364.67V238H1377.17V233.833Z" fill="#FF1AD2"/>
<path d="M1398 233.833H1377.17V238H1398V233.833Z" fill="#1929F4"/>
<path d="M1318.83 238H1298V242.167H1318.83V238Z" fill="#0ADC4D"/>
<path d="M1331.33 238H1318.83V242.167H1331.33V238Z" fill="#FFEF16"/>
<path d="M1364.67 238H1331.33V242.167H1364.67V238Z" fill="white"/>
<path d="M1377.17 238H1364.67V242.167H1377.17V238Z" fill="#FF1AD2"/>
<path d="M1398 238H1377.17V242.167H1398V238Z" fill="#1929F4"/>
<path d="M1323 242.167H1298V246.333H1323V242.167Z" fill="#0ADC4D"/>
<path d="M1331.33 242.167H1323V246.333H1331.33V242.167Z" fill="#FFEF16"/>
<path d="M1364.67 242.167H1331.33V246.333H1364.67V242.167Z" fill="white"/>
<path d="M1373 242.167H1364.67V246.333H1373V242.167Z" fill="#FF1AD2"/>
<path d="M1398 242.167H1373V246.333H1398V242.167Z" fill="#1929F4"/>
<path d="M1327.17 246.333H1298V250.5H1327.17V246.333Z" fill="#0ADC4D"/>
<path d="M1331.33 246.333H1327.17V250.5H1331.33V246.333Z" fill="#FFEF16"/>
<path d="M1364.67 246.333H1331.33V250.5H1364.67V246.333Z" fill="white"/>
<path d="M1368.83 246.333H1364.67V250.5H1368.83V246.333Z" fill="#FF1AD2"/>
<path d="M1398 246.333H1368.83V250.5H1398V246.333Z" fill="#1929F4"/>
<path d="M1331.33 250.5H1298V254.667H1331.33V250.5Z" fill="#0ADC4D"/>
<path d="M1335.5 250.5H1331.33V254.667H1335.5V250.5Z" fill="#00FCFF"/>
<path d="M1360.5 250.5H1335.5V254.667H1360.5V250.5Z" fill="white"/>
<path d="M1364.67 250.5H1360.5V254.667H1364.67V250.5Z" fill="#00FCFF"/>
<path d="M1398 250.5H1364.67V254.667H1398V250.5Z" fill="#1929F4"/>
<path d="M1331.33 254.667H1298V258.833H1331.33V254.667Z" fill="#0ADC4D"/>
<path d="M1364.67 254.667H1331.33V258.833H1364.67V254.667Z" fill="#00FCFF"/>
<path d="M1398 254.667H1364.67V258.833H1398V254.667Z" fill="#1929F4"/>
<path d="M1335.5 258.833H1302.17V263H1335.5V258.833Z" fill="#0ADC4D"/>
<path d="M1360.5 258.833H1335.5V263H1360.5V258.833Z" fill="#00FCFF"/>
<path d="M1393.83 258.833H1360.5V263H1393.83V258.833Z" fill="#1929F4"/>
<path d="M1335.5 263H1302.17V267.167H1335.5V263Z" fill="#0ADC4D"/>
<path d="M1360.5 263H1335.5V267.167H1360.5V263Z" fill="#00FCFF"/>
<path d="M1393.83 263H1360.5V267.167H1393.83V263Z" fill="#1929F4"/>
<path d="M1339.67 267.167H1306.33V271.333H1339.67V267.167Z" fill="#0ADC4D"/>
<path d="M1356.33 267.167H1339.67V271.333H1356.33V267.167Z" fill="#00FCFF"/>
<path d="M1389.67 267.167H1356.33V271.333H1389.67V267.167Z" fill="#1929F4"/>
<path d="M1343.83 271.333H1310.5V275.5H1343.83V271.333Z" fill="#0ADC4D"/>
<path d="M1352.17 271.333H1343.83V275.5H1352.17V271.333Z" fill="#00FCFF"/>
<path d="M1385.5 271.333H1352.17V275.5H1385.5V271.333Z" fill="#1929F4"/>
<path d="M1343.83 275.5H1318.83V279.667H1343.83V275.5Z" fill="#0ADC4D"/>
<path d="M1377.17 275.5H1352.17V279.667H1377.17V275.5Z" fill="#1929F4"/>
<path d="M1380.46 30H1368.92V33.8462H1380.46V30Z" fill="#FFE939"/>
<path d="M1399.69 30H1380.46V33.8462H1399.69V30Z" fill="#ABAAA8"/>
<path d="M1434.31 30H1399.69V33.8462H1434.31V30Z" fill="#58565C"/>
<path d="M1442 30H1434.31V33.8462H1442V30Z" fill="#F3322C"/>
<path d="M1380.46 33.8462H1365.08V37.6923H1380.46V33.8462Z" fill="#FFE939"/>
<path d="M1388.15 33.8462H1380.46V37.6923H1388.15V33.8462Z" fill="#ABAAA8"/>
<path d="M1392 33.8462H1388.15V37.6923H1392V33.8462Z" fill="#9D8E6E"/>
<path d="M1399.69 33.8462H1392V37.6923H1399.69V33.8462Z" fill="#ABAAA8"/>
<path d="M1434.31 33.8462H1399.69V37.6923H1434.31V33.8462Z" fill="#58565C"/>
<path d="M1442 33.8462H1434.31V37.6923H1442V33.8462Z" fill="#F3322C"/>
<path d="M1380.46 37.6923H1365.08V41.5384H1380.46V37.6923Z" fill="#FFE939"/>
<path d="M1399.69 37.6923H1380.46V41.5384H1399.69V37.6923Z" fill="#ABAAA8"/>
<path d="M1430.46 37.6923H1399.69V41.5384H1430.46V37.6923Z" fill="#58565C"/>
<path d="M1442 37.6923H1430.46V41.5384H1442V37.6923Z" fill="#F3322C"/>
<path d="M1380.46 41.5385H1345.85V45.3846H1380.46V41.5385Z" fill="#FFE939"/>
<path d="M1399.69 41.5385H1380.46V45.3846H1399.69V41.5385Z" fill="#ABAAA8"/>
<path d="M1430.46 41.5385H1399.69V45.3846H1430.46V41.5385Z" fill="#58565C"/>
<path d="M1442 41.5385H1430.46V45.3846H1442V41.5385Z" fill="#F3322C"/>
<path d="M1380.46 45.3846H1342V49.2308H1380.46V45.3846Z" fill="#FFE939"/>
<path d="M1399.69 45.3846H1380.46V49.2308H1399.69V45.3846Z" fill="#ABAAA8"/>
<path d="M1430.46 45.3846H1399.69V49.2308H1430.46V45.3846Z" fill="#58565C"/>
<path d="M1442 45.3846H1430.46V49.2308H1442V45.3846Z" fill="#F3322C"/>
<path d="M1380.46 49.2307H1342V53.0769H1380.46V49.2307Z" fill="#FFE939"/>
<path d="M1399.69 49.2307H1380.46V53.0769H1399.69V49.2307Z" fill="#ABAAA8"/>
<path d="M1430.46 49.2307H1399.69V53.0769H1430.46V49.2307Z" fill="#58565C"/>
<path d="M1442 49.2307H1430.46V53.0769H1442V49.2307Z" fill="#F3322C"/>
<path d="M1380.46 53.0769H1342V56.9231H1380.46V53.0769Z" fill="#FFE939"/>
<path d="M1399.69 53.0769H1380.46V56.9231H1399.69V53.0769Z" fill="#ABAAA8"/>
<path d="M1426.61 53.0769H1399.69V56.9231H1426.61V53.0769Z" fill="#58565C"/>
<path d="M1442 53.0769H1426.62V56.9231H1442V53.0769Z" fill="#F3322C"/>
<path d="M1380.46 56.9231H1342V60.7692H1380.46V56.9231Z" fill="#FFE939"/>
<path d="M1399.69 56.9231H1380.46V60.7692H1399.69V56.9231Z" fill="#ABAAA8"/>
<path d="M1426.61 56.9231H1399.69V60.7692H1426.61V56.9231Z" fill="#58565C"/>
<path d="M1442 56.9231H1426.62V60.7692H1442V56.9231Z" fill="#F3322C"/>
<path d="M1380.46 60.7693H1345.85V64.6154H1380.46V60.7693Z" fill="#FFE939"/>
<path d="M1399.69 60.7693H1380.46V64.6154H1399.69V60.7693Z" fill="#ABAAA8"/>
<path d="M1426.61 60.7693H1399.69V64.6154H1426.61V60.7693Z" fill="#58565C"/>
<path d="M1442 60.7693H1426.62V64.6154H1442V60.7693Z" fill="#F3322C"/>
<path d="M1380.46 64.6154H1365.08V68.4615H1380.46V64.6154Z" fill="#FFE939"/>
<path d="M1399.69 64.6154H1380.46V68.4615H1399.69V64.6154Z" fill="#ABAAA8"/>
<path d="M1426.61 64.6154H1399.69V68.4615H1426.61V64.6154Z" fill="#58565C"/>
<path d="M1442 64.6154H1426.62V68.4615H1442V64.6154Z" fill="#F3322C"/>
<path d="M1376.61 68.4615H1365.08V72.3077H1376.61V68.4615Z" fill="#FFE939"/>
<path d="M1384.31 68.4615H1376.62V72.3077H1384.31V68.4615Z" fill="#F3322C"/>
<path d="M1388.15 68.4615H1384.31V72.3077H1388.15V68.4615Z" fill="#ABAAA8"/>
<path d="M1392 68.4615H1388.15V72.3077H1392V68.4615Z" fill="#9D8E6E"/>
<path d="M1399.69 68.4615H1392V72.3077H1399.69V68.4615Z" fill="#ABAAA8"/>
<path d="M1422.77 68.4615H1399.69V72.3077H1422.77V68.4615Z" fill="#58565C"/>
<path d="M1442 68.4615H1422.77V72.3077H1442V68.4615Z" fill="#F3322C"/>
<path d="M1380.46 72.3077H1368.92V76.1539H1380.46V72.3077Z" fill="#FFE939"/>
<path d="M1399.69 72.3077H1380.46V76.1539H1399.69V72.3077Z" fill="#ABAAA8"/>
<path d="M1422.77 72.3077H1399.69V76.1539H1422.77V72.3077Z" fill="#58565C"/>
<path d="M1442 72.3077H1422.77V76.1539H1442V72.3077Z" fill="#F3322C"/>
<path d="M1430.46 76.1538H1426.62V80H1430.46V76.1538Z" fill="#F3322C"/>
<path d="M1442 76.1538H1434.31V80H1442V76.1538Z" fill="#F3322C"/>
<path d="M1442 80H1434.31V83.8462H1442V80Z" fill="#F3322C"/>
<path d="M1438.15 83.8462H1434.31V87.6923H1438.15V83.8462Z" fill="#F3322C"/>
<path d="M1438.15 87.6923H1434.31V91.5384H1438.15V87.6923Z" fill="#F3322C"/>
<path d="M1139.48 195H1135.13V199.348H1139.48V195Z" fill="#F7913D"/>
<path d="M1152.52 195H1148.17V199.348H1152.52V195Z" fill="#F7913D"/>
<path d="M1126.44 199.348H1122.09V203.696H1126.44V199.348Z" fill="#F7913D"/>
<path d="M1156.87 199.348H1130.78V203.696H1156.87V199.348Z" fill="#F7913D"/>
<path d="M1165.56 199.348H1161.22V203.696H1165.56V199.348Z" fill="#F7913D"/>
<path d="M1109.04 203.696H1096V208.044H1109.04V203.696Z" fill="#FF7216"/>
<path d="M1143.83 203.696H1122.09V208.044H1143.83V203.696Z" fill="#F7913D"/>
<path d="M1148.17 203.696H1143.83V208.044H1148.17V203.696Z" fill="#FF7216"/>
<path d="M1165.57 203.696H1148.17V208.044H1165.57V203.696Z" fill="#F7913D"/>
<path d="M1117.74 208.043H1096V212.391H1117.74V208.043Z" fill="#FF7216"/>
<path d="M1126.43 208.043H1117.74V212.391H1126.43V208.043Z" fill="#F7913D"/>
<path d="M1139.48 208.043H1126.44V212.391H1139.48V208.043Z" fill="#FF7216"/>
<path d="M1169.91 208.043H1139.48V212.391H1169.91V208.043Z" fill="#F7913D"/>
<path d="M1113.39 212.391H1096V216.739H1113.39V212.391Z" fill="#FF7216"/>
<path d="M1126.43 212.391H1113.39V216.739H1126.43V212.391Z" fill="#F7913D"/>
<path d="M1139.48 212.391H1126.44V216.739H1139.48V212.391Z" fill="#FF7216"/>
<path d="M1152.52 212.391H1139.48V216.739H1152.52V212.391Z" fill="#F7913D"/>
<path d="M1161.22 212.391H1152.52V216.739H1161.22V212.391Z" fill="#FF7216"/>
<path d="M1174.26 212.391H1161.22V216.739H1174.26V212.391Z" fill="#F7913D"/>
<path d="M1109.04 216.739H1096V221.087H1109.04V216.739Z" fill="#FF7216"/>
<path d="M1126.43 216.739H1109.04V221.087H1126.43V216.739Z" fill="#F7913D"/>
<path d="M1139.48 216.739H1126.44V221.087H1139.48V216.739Z" fill="#FF7216"/>
<path d="M1152.52 216.739H1139.48V221.087H1152.52V216.739Z" fill="#F7913D"/>
<path d="M1161.22 216.739H1152.52V221.087H1161.22V216.739Z" fill="#FF7216"/>
<path d="M1178.61 216.739H1161.22V221.087H1178.61V216.739Z" fill="#F7913D"/>
<path d="M1109.04 221.087H1096V225.435H1109.04V221.087Z" fill="#FF7216"/>
<path d="M1178.61 221.087H1109.04V225.435H1178.61V221.087Z" fill="#F7913D"/>
<path d="M1182.96 225.435H1104.7V229.783H1182.96V225.435Z" fill="#F7913D"/>
<path d="M1182.96 229.783H1104.7V234.13H1182.96V229.783Z" fill="#F7913D"/>
<path d="M1182.96 234.13H1104.7V238.478H1182.96V234.13Z" fill="#F7913D"/>
<path d="M1117.74 238.478H1096V242.826H1117.74V238.478Z" fill="#FF7216"/>
<path d="M1174.26 238.478H1117.74V242.826H1174.26V238.478Z" fill="#F7913D"/>
<path d="M1196 238.478H1174.26V242.826H1196V238.478Z" fill="#FF7216"/>
<path d="M1100.35 242.826H1096V247.174H1100.35V242.826Z" fill="#FF7216"/>
<path d="M1117.74 242.826H1100.35V247.174H1117.74V242.826Z" fill="#F7913D"/>
<path d="M1122.09 242.826H1117.74V247.174H1122.09V242.826Z" fill="#FFD067"/>
<path d="M1169.91 242.826H1122.09V247.174H1169.91V242.826Z" fill="#F7913D"/>
<path d="M1174.26 242.826H1169.91V247.174H1174.26V242.826Z" fill="#FFD067"/>
<path d="M1191.65 242.826H1174.26V247.174H1191.65V242.826Z" fill="#F7913D"/>
<path d="M1196 242.826H1191.65V247.174H1196V242.826Z" fill="#FF7216"/>
<path d="M1117.74 247.174H1096V251.522H1117.74V247.174Z" fill="#FF7216"/>
<path d="M1126.43 247.174H1117.74V251.522H1126.43V247.174Z" fill="#FFD067"/>
<path d="M1165.57 247.174H1126.44V251.522H1165.57V247.174Z" fill="#F7913D"/>
<path d="M1174.26 247.174H1165.56V251.522H1174.26V247.174Z" fill="#FFD067"/>
<path d="M1196 247.174H1174.26V251.522H1196V247.174Z" fill="#FF7216"/>
<path d="M1100.35 251.522H1096V255.87H1100.35V251.522Z" fill="#FF7216"/>
<path d="M1143.83 251.522H1100.35V255.87H1143.83V251.522Z" fill="#F7913D"/>
<path d="M1161.22 251.522H1143.83V255.87H1161.22V251.522Z" fill="#FF7216"/>
<path d="M1191.65 251.522H1161.22V255.87H1191.65V251.522Z" fill="#F7913D"/>
<path d="M1196 251.522H1191.65V255.87H1196V251.522Z" fill="#FF7216"/>
<path d="M1117.74 255.87H1096V260.217H1117.74V255.87Z" fill="#FF7216"/>
<path d="M1126.43 255.87H1117.74V260.217H1126.43V255.87Z" fill="#FFD067"/>
<path d="M1143.83 255.87H1126.44V260.217H1143.83V255.87Z" fill="#F7913D"/>
<path d="M1148.17 255.87H1143.83V260.217H1148.17V255.87Z" fill="#FF7216"/>
<path d="M1156.87 255.87H1148.17V260.217H1156.87V255.87Z" fill="#6E3206"/>
<path d="M1161.22 255.87H1156.87V260.217H1161.22V255.87Z" fill="#FF7216"/>
<path d="M1169.91 255.87H1161.22V260.217H1169.91V255.87Z" fill="#F7913D"/>
<path d="M1174.26 255.87H1169.91V260.217H1174.26V255.87Z" fill="#FFD067"/>
<path d="M1196 255.87H1174.26V260.217H1196V255.87Z" fill="#FF7216"/>
<path d="M1135.13 260.217H1109.04V264.565H1135.13V260.217Z" fill="#FFD067"/>
<path d="M1143.83 260.217H1135.13V264.565H1143.83V260.217Z" fill="#F7913D"/>
<path d="M1161.22 260.217H1143.83V264.565H1161.22V260.217Z" fill="#FF7216"/>
<path d="M1165.56 260.217H1161.22V264.565H1165.56V260.217Z" fill="#F7913D"/>
<path d="M1178.61 260.217H1165.56V264.565H1178.61V260.217Z" fill="#FFD067"/>
<path d="M1174.26 264.565H1113.39V268.913H1174.26V264.565Z" fill="#FFD067"/>
<path d="M1169.91 268.913H1117.74V273.261H1169.91V268.913Z" fill="#FFD067"/>
<path d="M1161.22 273.261H1126.44V277.609H1161.22V273.261Z" fill="#FFD067"/>
</g>
<defs>
<clipPath id="clip0_323_9497">
<rect width="1843" height="451" fill="white" transform="translate(-207)"/>
</clipPath>
</defs>
</svg>
