<svg width="20" height="20" viewBox="0 0 20 20" fill="none" xmlns="http://www.w3.org/2000/svg">
<g id="brush">
<path id="Vector" d="M16.25 0H3.75C3.05977 0 2.5 0.559766 2.5 1.25V10H17.5V1.25C17.5 0.559766 16.9402 0 16.25 0ZM2.5 12.5C2.5 13.8809 3.61953 15 5 15H7.5V17.5C7.5 18.8809 8.61953 20 10 20C11.3805 20 12.5 18.8809 12.5 17.5V15H15C16.3805 15 17.5 13.8809 17.5 12.5V11.25H2.5V12.5ZM10 16.5625C10.5176 16.5625 10.9375 16.982 10.9375 17.5C10.9375 18.0176 10.5176 18.4375 10 18.4375C9.48242 18.4375 9.0625 18.0176 9.0625 17.5C9.0625 16.982 9.48242 16.5625 10 16.5625Z" fill="#26B1F3"/>
</g>
</svg>
