<svg width="20" height="20" viewBox="0 0 20 20" fill="none" xmlns="http://www.w3.org/2000/svg">
<g id="code" clip-path="url(#clip0_323_11103)">
<path id="Vector" d="M8.71641 17.9844L6.81016 17.4313C6.61016 17.3751 6.49766 17.1657 6.55391 16.9657L10.8195 2.27193C10.8758 2.07193 11.0852 1.95943 11.2852 2.01568L13.1914 2.56881C13.3914 2.62506 13.5039 2.83443 13.4477 3.03443L9.18203 17.7282C9.12266 17.9282 8.91641 18.0438 8.71641 17.9844ZM5.15391 14.4782L6.51328 13.0282C6.65703 12.8751 6.64766 12.6313 6.48828 12.4907L3.65703 10.0001L6.48828 7.50943C6.64766 7.36881 6.66016 7.12506 6.51328 6.97193L5.15391 5.52193C5.01328 5.37193 4.77578 5.36256 4.62266 5.50631L0.119531 9.72506C-0.0398438 9.87193 -0.0398438 10.1251 0.119531 10.2719L4.62266 14.4938C4.77578 14.6376 5.01328 14.6313 5.15391 14.4782ZM15.3789 14.4969L19.882 10.2751C20.0414 10.1282 20.0414 9.87506 19.882 9.72818L15.3789 5.50318C15.2289 5.36256 14.9914 5.36881 14.8477 5.51881L13.4883 6.96881C13.3445 7.12193 13.3539 7.36568 13.5133 7.50631L16.3445 10.0001L13.5133 12.4907C13.3539 12.6313 13.3414 12.8751 13.4883 13.0282L14.8477 14.4782C14.9883 14.6313 15.2258 14.6376 15.3789 14.4969Z" fill="#068940"/>
</g>
<defs>
<clipPath id="clip0_323_11103">
<rect width="20" height="20" fill="white"/>
</clipPath>
</defs>
</svg>
