<svg width="54" height="54" viewBox="0 0 54 54" fill="none" xmlns="http://www.w3.org/2000/svg">
<g id="Group 37554">
<path id="Vector" d="M54 0H0V3H54V0Z" fill="#CFC2AB"/>
<path id="Vector_2" d="M3 3H0V6H3V3Z" fill="#CFC2AB"/>
<path id="Vector_3" d="M51 3H3V6H51V3Z" fill="#867C1D"/>
<path id="Vector_4" d="M54 3H51V6H54V3Z" fill="#CFC2AB"/>
<path id="Vector_5" d="M3 6H0V9H3V6Z" fill="#CFC2AB"/>
<path id="Vector_6" d="M6 6H3V9H6V6Z" fill="#867C1D"/>
<path id="Vector_7" d="M51 6H6V9H51V6Z" fill="#909B0E"/>
<path id="Vector_8" d="M54 6H51V9H54V6Z" fill="#CFC2AB"/>
<path id="Vector_9" d="M3 9H0V12H3V9Z" fill="#CFC2AB"/>
<path id="Vector_10" d="M6 9H3V12H6V9Z" fill="#867C1D"/>
<path id="Vector_11" d="M27 9H6V12H27V9Z" fill="#909B0E"/>
<path id="Vector_12" d="M30 9H27V12H30V9Z" fill="#6B7212"/>
<path id="Vector_13" d="M51 9H30V12H51V9Z" fill="#909B0E"/>
<path id="Vector_14" d="M54 9H51V12H54V9Z" fill="#CFC2AB"/>
<path id="Vector_15" d="M3 12H0V15H3V12Z" fill="#CFC2AB"/>
<path id="Vector_16" d="M6 12H3V15H6V12Z" fill="#867C1D"/>
<path id="Vector_17" d="M21 12H6V15H21V12Z" fill="#909B0E"/>
<path id="Vector_18" d="M36 12H21V15H36V12Z" fill="#867C1D"/>
<path id="Vector_19" d="M39 12H36V15H39V12Z" fill="#909B0E"/>
<path id="Vector_20" d="M42 12H39V15H42V12Z" fill="#6B7212"/>
<path id="Vector_21" d="M45 12H42V15H45V12Z" fill="#867C1D"/>
<path id="Vector_22" d="M48 12H45V15H48V12Z" fill="#6B7212"/>
<path id="Vector_23" d="M51 12H48V15H51V12Z" fill="#909B0E"/>
<path id="Vector_24" d="M54 12H51V15H54V12Z" fill="#CFC2AB"/>
<path id="Vector_25" d="M3 15H0V18H3V15Z" fill="#CFC2AB"/>
<path id="Vector_26" d="M6 15H3V18H6V15Z" fill="#867C1D"/>
<path id="Vector_27" d="M24 15H6V18H24V15Z" fill="#909B0E"/>
<path id="Vector_28" d="M33 15H24V18H33V15Z" fill="#6B7212"/>
<path id="Vector_29" d="M39 15H33V18H39V15Z" fill="#909B0E"/>
<path id="Vector_30" d="M42 15H39V18H42V15Z" fill="#867C1D"/>
<path id="Vector_31" d="M45 15H42V18H45V15Z" fill="#6B7212"/>
<path id="Vector_32" d="M48 15H45V18H48V15Z" fill="#867C1D"/>
<path id="Vector_33" d="M51 15H48V18H51V15Z" fill="#909B0E"/>
<path id="Vector_34" d="M54 15H51V18H54V15Z" fill="#CFC2AB"/>
<path id="Vector_35" d="M3 18H0V21H3V18Z" fill="#CFC2AB"/>
<path id="Vector_36" d="M6 18H3V21H6V18Z" fill="#867C1D"/>
<path id="Vector_37" d="M9 18H6V21H9V18Z" fill="#909B0E"/>
<path id="Vector_38" d="M15 18H9V21H15V18Z" fill="#867C1D"/>
<path id="Vector_39" d="M18 18H15V21H18V18Z" fill="#909B0E"/>
<path id="Vector_40" d="M21 18H18V21H21V18Z" fill="#867C1D"/>
<path id="Vector_41" d="M24 18H21V21H24V18Z" fill="#909B0E"/>
<path id="Vector_42" d="M27 18H24V21H27V18Z" fill="#6B7212"/>
<path id="Vector_43" d="M30 18H27V21H30V18Z" fill="#909B0E"/>
<path id="Vector_44" d="M33 18H30V21H33V18Z" fill="#6B7212"/>
<path id="Vector_45" d="M39 18H33V21H39V18Z" fill="#909B0E"/>
<path id="Vector_46" d="M42 18H39V21H42V18Z" fill="#6B7212"/>
<path id="Vector_47" d="M45 18H42V21H45V18Z" fill="#867C1D"/>
<path id="Vector_48" d="M48 18H45V21H48V18Z" fill="#6B7212"/>
<path id="Vector_49" d="M51 18H48V21H51V18Z" fill="#909B0E"/>
<path id="Vector_50" d="M54 18H51V21H54V18Z" fill="#CFC2AB"/>
<path id="Vector_51" d="M3 21H0V24H3V21Z" fill="#CFC2AB"/>
<path id="Vector_52" d="M6 21H3V24H6V21Z" fill="#867C1D"/>
<path id="Vector_53" d="M51 21H6V24H51V21Z" fill="#909B0E"/>
<path id="Vector_54" d="M54 21H51V24H54V21Z" fill="#CFC2AB"/>
<path id="Vector_55" d="M3 24H0V27H3V24Z" fill="#CFC2AB"/>
<path id="Vector_56" d="M6 24H3V27H6V24Z" fill="#867C1D"/>
<path id="Vector_57" d="M51 24H6V27H51V24Z" fill="#909B0E"/>
<path id="Vector_58" d="M54 24H51V27H54V24Z" fill="#CFC2AB"/>
<path id="Vector_59" d="M3 27H0V30H3V27Z" fill="#CFC2AB"/>
<path id="Vector_60" d="M6 27H3V30H6V27Z" fill="#867C1D"/>
<path id="Vector_61" d="M51 27H6V30H51V27Z" fill="#909B0E"/>
<path id="Vector_62" d="M54 27H51V30H54V27Z" fill="#CFC2AB"/>
<path id="Vector_63" d="M3 30H0V33H3V30Z" fill="#CFC2AB"/>
<path id="Vector_64" d="M6 30H3V33H6V30Z" fill="#867C1D"/>
<path id="Vector_65" d="M51 30H6V33H51V30Z" fill="#909B0E"/>
<path id="Vector_66" d="M54 30H51V33H54V30Z" fill="#CFC2AB"/>
<path id="Vector_67" d="M3 33H0V36H3V33Z" fill="#CFC2AB"/>
<path id="Vector_68" d="M6 33H3V36H6V33Z" fill="#867C1D"/>
<path id="Vector_69" d="M51 33H6V36H51V33Z" fill="#909B0E"/>
<path id="Vector_70" d="M54 33H51V36H54V33Z" fill="#CFC2AB"/>
<path id="Vector_71" d="M3 36H0V39H3V36Z" fill="#CFC2AB"/>
<path id="Vector_72" d="M6 36H3V39H6V36Z" fill="#867C1D"/>
<path id="Vector_73" d="M51 36H6V39H51V36Z" fill="#909B0E"/>
<path id="Vector_74" d="M54 36H51V39H54V36Z" fill="#CFC2AB"/>
<path id="Vector_75" d="M54 39H0V42H54V39Z" fill="#CFC2AB"/>
<path id="Vector_76" d="M6 42H0V45H6V42Z" fill="#CFC2AB"/>
<path id="Vector_77" d="M9 42H6V45H9V42Z" fill="#9D8E6E"/>
<path id="Vector_78" d="M54 42H9V45H54V42Z" fill="#CFC2AB"/>
<path id="Vector_79" d="M3 45H0V48H3V45Z" fill="#CFC2AB"/>
<path id="Vector_80" d="M12 45H3V48H12V45Z" fill="#9D8E6E"/>
<path id="Vector_81" d="M18 45H12V48H18V45Z" fill="#CFC2AB"/>
<path id="Vector_82" d="M21 45H18V48H21V45Z" fill="#9D8E6E"/>
<path id="Vector_83" d="M24 45H21V48H24V45Z" fill="#CFC2AB"/>
<path id="Vector_84" d="M27 45H24V48H27V45Z" fill="#9D8E6E"/>
<path id="Vector_85" d="M30 45H27V48H30V45Z" fill="#CFC2AB"/>
<path id="Vector_86" d="M39 45H30V48H39V45Z" fill="#4243F8"/>
<path id="Vector_87" d="M42 45H39V48H42V45Z" fill="#CFC2AB"/>
<path id="Vector_88" d="M51 45H42V48H51V45Z" fill="#F3322C"/>
<path id="Vector_89" d="M54 45H51V48H54V45Z" fill="#CFC2AB"/>
<path id="Vector_90" d="M6 48H0V51H6V48Z" fill="#CFC2AB"/>
<path id="Vector_91" d="M9 48H6V51H9V48Z" fill="#9D8E6E"/>
<path id="Vector_92" d="M15 48H9V51H15V48Z" fill="#CFC2AB"/>
<path id="Vector_93" d="M18 48H15V51H18V48Z" fill="#9D8E6E"/>
<path id="Vector_94" d="M21 48H18V51H21V48Z" fill="#CFC2AB"/>
<path id="Vector_95" d="M24 48H21V51H24V48Z" fill="#9D8E6E"/>
<path id="Vector_96" d="M30 48H24V51H30V48Z" fill="#CFC2AB"/>
<path id="Vector_97" d="M39 48H30V51H39V48Z" fill="#4243F8"/>
<path id="Vector_98" d="M42 48H39V51H42V48Z" fill="#CFC2AB"/>
<path id="Vector_99" d="M51 48H42V51H51V48Z" fill="#F3322C"/>
<path id="Vector_100" d="M54 48H51V51H54V48Z" fill="#CFC2AB"/>
<path id="Vector_101" d="M54 51H0V54H54V51Z" fill="#CFC2AB"/>
</g>
</svg>
