<?xml version="1.0" standalone="no"?>
<!DOCTYPE svg PUBLIC "-//W3C//DTD SVG 20010904//EN"
 "http://www.w3.org/TR/2001/REC-SVG-20010904/DTD/svg10.dtd">
<svg version="1.0" xmlns="http://www.w3.org/2000/svg"
 width="871.000000pt" height="284.000000pt" viewBox="0 0 871.000000 284.000000"
 preserveAspectRatio="xMidYMid meet">
<metadata>
Created by potrace 1.16, written by Peter Selinger 2001-2019
</metadata>
<g transform="translate(0.000000,284.000000) scale(0.100000,-0.100000)"
fill="#000000" stroke="none">
<path d="M290 2569 c-81 -10 -209 -38 -232 -50 -17 -9 -17 -62 -12 -932 4
-507 9 -938 13 -957 4 -21 15 -39 27 -44 11 -5 25 -19 30 -30 6 -15 22 -23 54
-28 120 -18 486 0 518 25 10 8 11 75 6 322 l-7 313 69 7 c227 23 407 126 535
309 l49 69 0 -449 c0 -507 3 -551 34 -566 12 -5 26 -19 31 -31 10 -22 14 -22
205 -21 142 0 206 4 235 15 l40 14 1 409 1 409 26 23 c48 41 158 39 325 -5
l40 -11 5 -193 c8 -292 35 -373 171 -505 146 -143 240 -175 516 -176 253 0
345 26 434 124 40 45 52 69 72 145 12 48 12 44 14 -95 2 -80 5 -251 9 -380 6
-231 6 -235 29 -245 12 -5 22 -15 22 -22 0 -20 443 -19 459 1 16 20 34 282 28
409 l-6 108 37 -8 c20 -4 100 -8 177 -8 179 0 256 21 334 91 126 113 187 355
162 644 -29 346 -70 459 -220 605 -87 85 -125 109 -214 136 -55 17 -87 20
-170 17 -67 -3 -112 -9 -131 -20 -28 -15 -32 -14 -59 6 -27 20 -43 21 -232 24
-176 3 -205 1 -219 -13 -13 -13 -16 -39 -16 -138 -1 -116 -1 -120 -15 -88 -19
43 -146 170 -205 203 -25 15 -79 37 -120 49 -68 21 -93 23 -275 23 -155 -1
-216 -5 -270 -19 -87 -22 -164 -57 -194 -89 -20 -21 -27 -23 -47 -14 -13 6
-26 19 -29 29 -9 29 -46 34 -215 33 -107 -1 -172 -6 -209 -16 l-54 -16 -23 27
-22 26 -201 0 c-121 0 -203 4 -209 10 -5 6 -17 33 -27 60 -91 254 -351 435
-700 485 -82 11 -282 11 -375 -1z m425 -128 c312 -65 477 -212 516 -463 19
-126 -4 -229 -78 -340 -75 -114 -183 -194 -328 -244 -68 -23 -96 -27 -182 -26
-77 1 -104 -3 -114 -14 -9 -10 -10 -94 -7 -333 l4 -319 -29 -6 c-16 -3 -96 -6
-177 -6 l-147 0 -6 862 c-4 475 -3 866 1 870 17 17 185 36 317 37 101 0 165
-4 230 -18z m2358 -516 c82 -17 157 -56 201 -106 50 -55 68 -143 74 -365 4
-183 -10 -465 -29 -581 -13 -76 -54 -141 -106 -170 -64 -36 -144 -45 -349 -41
-179 3 -192 5 -244 29 -105 49 -159 118 -196 250 -21 71 -36 540 -23 654 14
115 44 224 69 250 29 31 107 64 189 80 91 18 329 18 414 0z m-1347 -60 c11
-58 24 -62 117 -31 98 31 195 52 295 62 l72 7 0 -180 0 -180 -52 15 c-33 9
-97 15 -168 16 -104 0 -121 -2 -172 -26 -45 -21 -61 -35 -80 -70 l-23 -43 4
-376 3 -376 -38 -6 c-20 -4 -79 -3 -131 0 l-93 6 0 603 0 603 58 4 c31 2 89 4
129 5 l72 2 7 -35z m2139 -11 c11 -76 66 -109 103 -62 54 69 88 95 132 102
126 18 283 -39 350 -128 75 -99 100 -190 120 -431 13 -158 8 -262 -20 -383
-50 -214 -130 -272 -375 -272 -120 0 -212 18 -227 44 -11 19 -59 21 -76 4 -9
-9 -12 -86 -12 -284 0 -150 -3 -279 -6 -288 -5 -13 -26 -16 -123 -16 l-118 0
-6 623 c-4 342 -7 738 -7 880 l0 257 129 0 129 0 7 -46z"/>
<path d="M480 2137 l-25 -13 0 -194 c1 -204 10 -264 43 -274 28 -9 253 12 308
28 98 30 143 93 144 197 0 112 -84 211 -213 253 -60 20 -221 21 -257 3z m271
-168 c53 -18 79 -47 79 -89 0 -62 -33 -82 -172 -105 l-38 -6 0 106 0 105 49 0
c26 0 63 -5 82 -11z"/>
<path d="M2764 1605 c-59 -29 -90 -67 -104 -127 -5 -24 -10 -127 -10 -229 0
-177 1 -188 23 -219 43 -64 100 -89 202 -90 79 0 126 17 171 65 55 57 69 113
69 285 0 154 -15 217 -68 277 -42 48 -82 63 -165 63 -53 0 -79 -6 -118 -25z
m217 -166 c18 -35 22 -127 10 -239 -7 -65 -17 -110 -26 -119 -9 -9 -41 -17
-80 -19 l-65 -4 0 163 c0 176 6 204 50 226 41 21 97 17 111 -8z"/>
<path d="M3979 1640 c-51 -27 -86 -72 -106 -138 -15 -47 -18 -96 -18 -272 0
-195 2 -219 20 -254 35 -69 61 -81 178 -81 127 0 181 18 235 80 49 56 72 130
79 255 6 111 -6 181 -46 266 -33 70 -80 120 -136 145 -55 25 -158 25 -206 -1z
m216 -174 c70 -70 74 -330 6 -410 -23 -27 -74 -46 -125 -46 l-45 0 -7 47 c-11
73 2 325 19 365 29 69 105 91 152 44z"/>
<path d="M5400 2569 c-41 -4 -93 -14 -115 -21 l-40 -13 0 -545 c0 -300 -3
-741 -5 -980 -5 -433 -5 -435 16 -444 11 -5 25 -19 30 -30 9 -21 12 -21 596
-24 l587 -2 28 24 c25 21 28 31 31 100 l4 77 67 -64 c131 -127 234 -160 501
-161 194 0 265 11 351 54 56 29 126 113 144 173 38 127 68 483 58 680 l-6 97
36 0 c45 0 44 3 51 -260 6 -239 26 -375 63 -439 108 -185 382 -288 738 -279
l120 3 19 39 c25 52 32 184 16 330 -12 108 -14 117 -35 122 -13 3 -26 16 -29
28 -5 22 -12 23 -123 29 -65 3 -142 11 -170 17 l-53 12 0 204 0 204 195 0
c175 0 195 2 202 17 5 10 9 97 8 193 0 152 -2 180 -19 214 -11 21 -28 41 -37
43 -10 3 -21 14 -25 25 -9 29 -34 34 -131 26 -48 -3 -114 -7 -145 -7 l-58 -1
-2 213 c-3 209 -3 212 -26 222 -12 5 -25 18 -28 27 -3 10 -13 21 -22 26 -9 4
-111 7 -227 7 l-210 0 -13 -27 c-9 -20 -13 -87 -12 -247 l0 -221 -78 0 c-42 0
-84 -5 -92 -10 -10 -6 -17 -32 -20 -76 l-5 -67 -57 57 c-60 60 -139 103 -238
127 -84 21 -424 17 -515 -6 -146 -37 -252 -118 -274 -208 -5 -23 -17 -67 -25
-97 -13 -44 -16 -112 -16 -339 l0 -284 -264 6 c-145 4 -271 10 -280 13 -14 5
-16 77 -18 673 l-3 666 -22 10 c-13 5 -23 15 -23 22 0 52 -221 92 -400 72z
m263 -125 c17 -6 21 -189 22 -1184 0 -124 4 -231 8 -237 5 -9 33 -13 80 -13
40 0 188 -5 330 -12 l257 -12 0 -151 0 -152 -322 -6 c-178 -3 -404 -3 -503 0
l-180 6 0 883 0 883 40 4 c52 6 247 0 268 -9z m2340 -60 l97 -6 0 -233 c0
-194 2 -235 15 -245 12 -10 60 -11 210 -5 l195 7 0 -48 c0 -27 -3 -79 -7 -116
l-6 -68 -183 0 c-100 0 -189 -3 -198 -6 -14 -5 -16 -41 -16 -299 l0 -293 31
-32 c17 -17 44 -37 60 -45 41 -22 141 -43 235 -51 l82 -7 6 -51 c9 -74 7 -179
-3 -195 -7 -11 -33 -13 -138 -8 -263 12 -434 73 -487 176 -24 46 -46 263 -52
528 -5 200 -9 260 -20 269 -9 7 -42 9 -89 6 l-75 -5 0 117 0 116 84 0 c63 0
87 4 96 15 10 12 11 59 6 209 -4 107 -4 215 -1 240 7 42 9 45 34 41 14 -2 70
-7 124 -11z m-802 -458 c80 -17 136 -45 189 -92 76 -68 95 -191 87 -544 -6
-249 -19 -407 -39 -470 -25 -78 -88 -129 -186 -149 -79 -16 -385 -14 -451 4
-116 30 -192 103 -230 218 -34 102 -40 161 -42 439 -2 242 -1 272 21 372 16
74 30 117 46 136 29 34 105 67 193 85 90 18 329 18 412 1z"/>
<path d="M6905 1611 c-57 -27 -102 -78 -114 -131 -14 -62 -14 -405 0 -433 35
-68 112 -107 213 -107 80 0 127 18 171 64 51 52 65 99 72 235 11 210 -37 341
-140 380 -46 18 -157 13 -202 -8z m211 -186 c25 -60 10 -313 -21 -344 -9 -9
-40 -17 -80 -19 l-65 -4 0 150 c0 82 3 164 6 182 8 40 54 70 107 70 34 0 40
-4 53 -35z"/>
</g>
</svg>
