<svg width="80" height="30" viewBox="0 0 80 30" fill="none" xmlns="http://www.w3.org/2000/svg">
<g id="noggles.7644bfd0.svg" clip-path="url(#clip0_323_11445)">
<path id="Vector" d="M45 0H15V5H45V0Z" fill="#D53C5E"/>
<path id="Vector_2" d="M80 0H50V5H80V0Z" fill="#D53C5E"/>
<path id="Vector_3" d="M20 5H15V10H20V5Z" fill="#D53C5E"/>
<path id="Vector_4" d="M30 5H20V10H30V5Z" fill="white"/>
<path id="Vector_5" d="M40 5H30V10H40V5Z" fill="black"/>
<path id="Vector_6" d="M45 5H40V10H45V5Z" fill="#D53C5E"/>
<path id="Vector_7" d="M55 5H50V10H55V5Z" fill="#D53C5E"/>
<path id="Vector_8" d="M65 5H55V10H65V5Z" fill="white"/>
<path id="Vector_9" d="M75 5H65V10H75V5Z" fill="black"/>
<path id="Vector_10" d="M80 5H75V10H80V5Z" fill="#D53C5E"/>
<path id="Vector_11" d="M20 10H0V15H20V10Z" fill="#D53C5E"/>
<path id="Vector_12" d="M30 10H20V15H30V10Z" fill="white"/>
<path id="Vector_13" d="M40 10H30V15H40V10Z" fill="black"/>
<path id="Vector_14" d="M55 10H40V15H55V10Z" fill="#D53C5E"/>
<path id="Vector_15" d="M65 10H55V15H65V10Z" fill="white"/>
<path id="Vector_16" d="M75 10H65V15H75V10Z" fill="black"/>
<path id="Vector_17" d="M80 10H75V15H80V10Z" fill="#D53C5E"/>
<path id="Vector_18" d="M5 15H0V20H5V15Z" fill="#D53C5E"/>
<path id="Vector_19" d="M20 15H15V20H20V15Z" fill="#D53C5E"/>
<path id="Vector_20" d="M30 15H20V20H30V15Z" fill="white"/>
<path id="Vector_21" d="M40 15H30V20H40V15Z" fill="black"/>
<path id="Vector_22" d="M45 15H40V20H45V15Z" fill="#D53C5E"/>
<path id="Vector_23" d="M55 15H50V20H55V15Z" fill="#D53C5E"/>
<path id="Vector_24" d="M65 15H55V20H65V15Z" fill="white"/>
<path id="Vector_25" d="M75 15H65V20H75V15Z" fill="black"/>
<path id="Vector_26" d="M80 15H75V20H80V15Z" fill="#D53C5E"/>
<path id="Vector_27" d="M5 20H0V25H5V20Z" fill="#D53C5E"/>
<path id="Vector_28" d="M20 20H15V25H20V20Z" fill="#D53C5E"/>
<path id="Vector_29" d="M30 20H20V25H30V20Z" fill="white"/>
<path id="Vector_30" d="M40 20H30V25H40V20Z" fill="black"/>
<path id="Vector_31" d="M45 20H40V25H45V20Z" fill="#D53C5E"/>
<path id="Vector_32" d="M55 20H50V25H55V20Z" fill="#D53C5E"/>
<path id="Vector_33" d="M65 20H55V25H65V20Z" fill="white"/>
<path id="Vector_34" d="M75 20H65V25H75V20Z" fill="black"/>
<path id="Vector_35" d="M80 20H75V25H80V20Z" fill="#D53C5E"/>
<path id="Vector_36" d="M45 25H15V30H45V25Z" fill="#D53C5E"/>
<path id="Vector_37" d="M80 25H50V30H80V25Z" fill="#D53C5E"/>
</g>
<defs>
<clipPath id="clip0_323_11445">
<rect width="80" height="30" fill="white"/>
</clipPath>
</defs>
</svg>
