<svg width="42" height="54" viewBox="0 0 42 54" fill="none" xmlns="http://www.w3.org/2000/svg">
<g id="Group 37545">
<path id="Vector" d="M24 0H18V3H24V0Z" fill="black"/>
<path id="Vector_2" d="M24 3H18V6H24V3Z" fill="black"/>
<path id="Vector_3" d="M27 6H15V9H27V6Z" fill="black"/>
<path id="Vector_4" d="M27 9H15V12H27V9Z" fill="black"/>
<path id="Vector_5" d="M30 12H12V15H30V12Z" fill="black"/>
<path id="Vector_6" d="M18 15H12V18H18V15Z" fill="black"/>
<path id="Vector_7" d="M21 15H18V18H21V15Z" fill="#FFF0BE"/>
<path id="Vector_8" d="M30 15H21V18H30V15Z" fill="black"/>
<path id="Vector_9" d="M15 18H9V21H15V18Z" fill="black"/>
<path id="Vector_10" d="M24 18H15V21H24V18Z" fill="#FFF0BE"/>
<path id="Vector_11" d="M33 18H24V21H33V18Z" fill="black"/>
<path id="Vector_12" d="M30 21H9V24H30V21Z" fill="#FFF0BE"/>
<path id="Vector_13" d="M33 21H30V24H33V21Z" fill="black"/>
<path id="Vector_14" d="M36 24H6V27H36V24Z" fill="#FFF0BE"/>
<path id="Vector_15" d="M36 27H6V30H36V27Z" fill="#FFF0BE"/>
<path id="Vector_16" d="M39 30H3V33H39V30Z" fill="#FFF0BE"/>
<path id="Vector_17" d="M39 33H3V36H39V33Z" fill="#FFF0BE"/>
<path id="Vector_18" d="M42 36H0V39H42V36Z" fill="#FFF0BE"/>
<path id="Vector_19" d="M42 39H0V42H42V39Z" fill="#FFF0BE"/>
<path id="Vector_20" d="M6 42H0V45H6V42Z" fill="#FFF0BE"/>
<path id="Vector_21" d="M18 42H6V45H18V42Z" fill="#FFC110"/>
<path id="Vector_22" d="M33 42H18V45H33V42Z" fill="#FFF0BE"/>
<path id="Vector_23" d="M42 42H33V45H42V42Z" fill="#FFC110"/>
<path id="Vector_24" d="M3 45H0V48H3V45Z" fill="#FFF0BE"/>
<path id="Vector_25" d="M21 45H3V48H21V45Z" fill="#FFC110"/>
<path id="Vector_26" d="M30 45H21V48H30V45Z" fill="#FFF0BE"/>
<path id="Vector_27" d="M42 45H30V48H42V45Z" fill="#FFC110"/>
<path id="Vector_28" d="M9 48H0V51H9V48Z" fill="#FFC110"/>
<path id="Vector_29" d="M33 48H9V51H33V48Z" fill="#E8705B"/>
<path id="Vector_30" d="M42 48H33V51H42V48Z" fill="#FFC110"/>
<path id="Vector_31" d="M42 51H0V54H42V51Z" fill="#FFC110"/>
</g>
</svg>
