<svg width="20" height="20" viewBox="0 0 20 20" fill="none" xmlns="http://www.w3.org/2000/svg">
<g id="question">
<path id="Vector" d="M10.3916 0C7.27362 0 5.25413 1.27746 3.66862 3.5557C3.38101 3.96898 3.46968 4.53562 3.87089 4.83984L5.55597 6.11754C5.96116 6.42477 6.53769 6.35293 6.85491 5.95551C7.83339 4.72969 8.55921 4.02391 10.0876 4.02391C11.2893 4.02391 12.7757 4.79731 12.7757 5.96262C12.7757 6.84355 12.0485 7.29598 10.8619 7.96121C9.47823 8.73699 7.64714 9.70246 7.64714 12.1177V12.5C7.64714 13.0178 8.06687 13.4375 8.58464 13.4375H11.4155C11.9333 13.4375 12.353 13.0178 12.353 12.5V12.2745C12.353 10.6003 17.2463 10.5305 17.2463 6C17.2464 2.58813 13.7072 0 10.3916 0ZM10.0001 14.5882C8.50808 14.5882 7.29421 15.8021 7.29421 17.2941C7.29421 18.7861 8.50808 20 10.0001 20C11.4921 20 12.706 18.7861 12.706 17.2941C12.706 15.8021 11.4921 14.5882 10.0001 14.5882Z" fill="#1929F4"/>
</g>
</svg>
