<svg width="78" height="54" viewBox="0 0 78 54" fill="none" xmlns="http://www.w3.org/2000/svg">
<g id="Group 37552">
<path id="Vector" d="M51 0H27V3H51V0Z" fill="#FF7216"/>
<path id="Vector_2" d="M33 3H21V6H33V3Z" fill="#FF7216"/>
<path id="Vector_3" d="M36 3H33V6H36V3Z" fill="#F78A18"/>
<path id="Vector_4" d="M42 3H36V6H42V3Z" fill="#FF7216"/>
<path id="Vector_5" d="M45 3H42V6H45V3Z" fill="#F78A18"/>
<path id="Vector_6" d="M57 3H45V6H57V3Z" fill="#FF7216"/>
<path id="Vector_7" d="M30 6H15V9H30V6Z" fill="#FF7216"/>
<path id="Vector_8" d="M33 6H30V9H33V6Z" fill="#F78A18"/>
<path id="Vector_9" d="M36 6H33V9H36V6Z" fill="#FF7216"/>
<path id="Vector_10" d="M42 6H36V9H42V6Z" fill="#F78A18"/>
<path id="Vector_11" d="M45 6H42V9H45V6Z" fill="#FF7216"/>
<path id="Vector_12" d="M48 6H45V9H48V6Z" fill="#F78A18"/>
<path id="Vector_13" d="M63 6H48V9H63V6Z" fill="#FF7216"/>
<path id="Vector_14" d="M15 9H12V12H15V9Z" fill="#FF7216"/>
<path id="Vector_15" d="M18 9H15V12H18V9Z" fill="#F78A18"/>
<path id="Vector_16" d="M21 9H18V12H21V9Z" fill="#FF7216"/>
<path id="Vector_17" d="M57 9H21V12H57V9Z" fill="#F78A18"/>
<path id="Vector_18" d="M60 9H57V12H60V9Z" fill="#FF7216"/>
<path id="Vector_19" d="M63 9H60V12H63V9Z" fill="#F78A18"/>
<path id="Vector_20" d="M66 9H63V12H66V9Z" fill="#FF7216"/>
<path id="Vector_21" d="M12 12H9V15H12V12Z" fill="#FF7216"/>
<path id="Vector_22" d="M15 12H12V15H15V12Z" fill="#F78A18"/>
<path id="Vector_23" d="M18 12H15V15H18V12Z" fill="#FF7216"/>
<path id="Vector_24" d="M30 12H18V15H30V12Z" fill="#F78A18"/>
<path id="Vector_25" d="M33 12H30V15H33V12Z" fill="#FFC110"/>
<path id="Vector_26" d="M36 12H33V15H36V12Z" fill="#F78A18"/>
<path id="Vector_27" d="M42 12H36V15H42V12Z" fill="#FFC110"/>
<path id="Vector_28" d="M45 12H42V15H45V12Z" fill="#F78A18"/>
<path id="Vector_29" d="M48 12H45V15H48V12Z" fill="#FFC110"/>
<path id="Vector_30" d="M60 12H48V15H60V12Z" fill="#F78A18"/>
<path id="Vector_31" d="M63 12H60V15H63V12Z" fill="#FF7216"/>
<path id="Vector_32" d="M66 12H63V15H66V12Z" fill="#F78A18"/>
<path id="Vector_33" d="M69 12H66V15H69V12Z" fill="#FF7216"/>
<path id="Vector_34" d="M9 15H6V18H9V15Z" fill="#FF7216"/>
<path id="Vector_35" d="M12 15H9V18H12V15Z" fill="#F78A18"/>
<path id="Vector_36" d="M15 15H12V18H15V15Z" fill="#FF7216"/>
<path id="Vector_37" d="M24 15H15V18H24V15Z" fill="#F78A18"/>
<path id="Vector_38" d="M54 15H24V18H54V15Z" fill="#FFC110"/>
<path id="Vector_39" d="M63 15H54V18H63V15Z" fill="#F78A18"/>
<path id="Vector_40" d="M66 15H63V18H66V15Z" fill="#FF7216"/>
<path id="Vector_41" d="M69 15H66V18H69V15Z" fill="#F78A18"/>
<path id="Vector_42" d="M72 15H69V18H72V15Z" fill="#FF7216"/>
<path id="Vector_43" d="M12 18H6V21H12V18Z" fill="#FF7216"/>
<path id="Vector_44" d="M21 18H12V21H21V18Z" fill="#F78A18"/>
<path id="Vector_45" d="M30 18H21V21H30V18Z" fill="#FFC110"/>
<path id="Vector_46" d="M33 18H30V21H33V18Z" fill="#FFEF16"/>
<path id="Vector_47" d="M36 18H33V21H36V18Z" fill="#FFC110"/>
<path id="Vector_48" d="M42 18H36V21H42V18Z" fill="#FFEF16"/>
<path id="Vector_49" d="M45 18H42V21H45V18Z" fill="#FFC110"/>
<path id="Vector_50" d="M48 18H45V21H48V18Z" fill="#FFEF16"/>
<path id="Vector_51" d="M57 18H48V21H57V18Z" fill="#FFC110"/>
<path id="Vector_52" d="M66 18H57V21H66V18Z" fill="#F78A18"/>
<path id="Vector_53" d="M72 18H66V21H72V18Z" fill="#FF7216"/>
<path id="Vector_54" d="M9 21H3V24H9V21Z" fill="#FF7216"/>
<path id="Vector_55" d="M18 21H9V24H18V21Z" fill="#F78A18"/>
<path id="Vector_56" d="M27 21H18V24H27V21Z" fill="#FFC110"/>
<path id="Vector_57" d="M51 21H27V24H51V21Z" fill="#FFEF16"/>
<path id="Vector_58" d="M60 21H51V24H60V21Z" fill="#FFC110"/>
<path id="Vector_59" d="M69 21H60V24H69V21Z" fill="#F78A18"/>
<path id="Vector_60" d="M75 21H69V24H75V21Z" fill="#FF7216"/>
<path id="Vector_61" d="M9 24H3V27H9V24Z" fill="#FF7216"/>
<path id="Vector_62" d="M15 24H9V27H15V24Z" fill="#F78A18"/>
<path id="Vector_63" d="M24 24H15V27H24V24Z" fill="#FFC110"/>
<path id="Vector_64" d="M54 24H24V27H54V24Z" fill="#FFEF16"/>
<path id="Vector_65" d="M63 24H54V27H63V24Z" fill="#FFC110"/>
<path id="Vector_66" d="M69 24H63V27H69V24Z" fill="#F78A18"/>
<path id="Vector_67" d="M75 24H69V27H75V24Z" fill="#FF7216"/>
<path id="Vector_68" d="M9 27H0V30H9V27Z" fill="#FF7216"/>
<path id="Vector_69" d="M15 27H9V30H15V27Z" fill="#F78A18"/>
<path id="Vector_70" d="M21 27H15V30H21V27Z" fill="#FFC110"/>
<path id="Vector_71" d="M57 27H21V30H57V27Z" fill="#FFEF16"/>
<path id="Vector_72" d="M63 27H57V30H63V27Z" fill="#FFC110"/>
<path id="Vector_73" d="M69 27H63V30H69V27Z" fill="#F78A18"/>
<path id="Vector_74" d="M78 27H69V30H78V27Z" fill="#FF7216"/>
<path id="Vector_75" d="M6 30H0V33H6V30Z" fill="#FF7216"/>
<path id="Vector_76" d="M12 30H6V33H12V30Z" fill="#F78A18"/>
<path id="Vector_77" d="M18 30H12V33H18V30Z" fill="#FFC110"/>
<path id="Vector_78" d="M60 30H18V33H60V30Z" fill="#FFEF16"/>
<path id="Vector_79" d="M66 30H60V33H66V30Z" fill="#FFC110"/>
<path id="Vector_80" d="M72 30H66V33H72V30Z" fill="#F78A18"/>
<path id="Vector_81" d="M78 30H72V33H78V30Z" fill="#FF7216"/>
<path id="Vector_82" d="M3 33H0V36H3V33Z" fill="#FF7216"/>
<path id="Vector_83" d="M6 33H3V36H6V33Z" fill="#F78A18"/>
<path id="Vector_84" d="M9 33H6V36H9V33Z" fill="#FF7216"/>
<path id="Vector_85" d="M15 33H9V36H15V33Z" fill="#F78A18"/>
<path id="Vector_86" d="M21 33H15V36H21V33Z" fill="#FFC110"/>
<path id="Vector_87" d="M60 33H21V36H60V33Z" fill="#FFEF16"/>
<path id="Vector_88" d="M63 33H60V36H63V33Z" fill="#FFC110"/>
<path id="Vector_89" d="M69 33H63V36H69V33Z" fill="#F78A18"/>
<path id="Vector_90" d="M72 33H69V36H72V33Z" fill="#FF7216"/>
<path id="Vector_91" d="M75 33H72V36H75V33Z" fill="#F78A18"/>
<path id="Vector_92" d="M78 33H75V36H78V33Z" fill="#FF7216"/>
<path id="Vector_93" d="M6 36H0V39H6V36Z" fill="#FF7216"/>
<path id="Vector_94" d="M12 36H6V39H12V36Z" fill="#F78A18"/>
<path id="Vector_95" d="M18 36H12V39H18V36Z" fill="#FFC110"/>
<path id="Vector_96" d="M60 36H18V39H60V36Z" fill="#FFEF16"/>
<path id="Vector_97" d="M66 36H60V39H66V36Z" fill="#FFC110"/>
<path id="Vector_98" d="M72 36H66V39H72V36Z" fill="#F78A18"/>
<path id="Vector_99" d="M78 36H72V39H78V36Z" fill="#FF7216"/>
<path id="Vector_100" d="M6 39H0V42H6V39Z" fill="#FF7216"/>
<path id="Vector_101" d="M12 39H6V42H12V39Z" fill="#F78A18"/>
<path id="Vector_102" d="M18 39H12V42H18V39Z" fill="#FFC110"/>
<path id="Vector_103" d="M60 39H18V42H60V39Z" fill="#FFEF16"/>
<path id="Vector_104" d="M66 39H60V42H66V39Z" fill="#FFC110"/>
<path id="Vector_105" d="M72 39H66V42H72V39Z" fill="#F78A18"/>
<path id="Vector_106" d="M78 39H72V42H78V39Z" fill="#FF7216"/>
<path id="Vector_107" d="M3 42H0V45H3V42Z" fill="#FF7216"/>
<path id="Vector_108" d="M6 42H3V45H6V42Z" fill="#F78A18"/>
<path id="Vector_109" d="M9 42H6V45H9V42Z" fill="#FF7216"/>
<path id="Vector_110" d="M15 42H9V45H15V42Z" fill="#F78A18"/>
<path id="Vector_111" d="M21 42H15V45H21V42Z" fill="#FFC110"/>
<path id="Vector_112" d="M57 42H21V45H57V42Z" fill="#FFEF16"/>
<path id="Vector_113" d="M63 42H57V45H63V42Z" fill="#FFC110"/>
<path id="Vector_114" d="M69 42H63V45H69V42Z" fill="#F78A18"/>
<path id="Vector_115" d="M72 42H69V45H72V42Z" fill="#FF7216"/>
<path id="Vector_116" d="M75 42H72V45H75V42Z" fill="#F78A18"/>
<path id="Vector_117" d="M78 42H75V45H78V42Z" fill="#FF7216"/>
<path id="Vector_118" d="M6 45H0V48H6V45Z" fill="#FF7216"/>
<path id="Vector_119" d="M12 45H6V48H12V45Z" fill="#F78A18"/>
<path id="Vector_120" d="M18 45H12V48H18V45Z" fill="#FFC110"/>
<path id="Vector_121" d="M36 45H18V48H36V45Z" fill="#FFEF16"/>
<path id="Vector_122" d="M42 45H36V48H42V45Z" fill="white"/>
<path id="Vector_123" d="M45 45H42V48H45V45Z" fill="#FFC110"/>
<path id="Vector_124" d="M60 45H45V48H60V45Z" fill="#FFEF16"/>
<path id="Vector_125" d="M66 45H60V48H66V45Z" fill="#FFC110"/>
<path id="Vector_126" d="M72 45H66V48H72V45Z" fill="#F78A18"/>
<path id="Vector_127" d="M78 45H72V48H78V45Z" fill="#FF7216"/>
<path id="Vector_128" d="M9 48H0V51H9V48Z" fill="#FF7216"/>
<path id="Vector_129" d="M15 48H9V51H15V48Z" fill="#F78A18"/>
<path id="Vector_130" d="M21 48H15V51H21V48Z" fill="#FFC110"/>
<path id="Vector_131" d="M57 48H21V51H57V48Z" fill="#FFEF16"/>
<path id="Vector_132" d="M63 48H57V51H63V48Z" fill="#FFC110"/>
<path id="Vector_133" d="M69 48H63V51H69V48Z" fill="#F78A18"/>
<path id="Vector_134" d="M78 48H69V51H78V48Z" fill="#FF7216"/>
<path id="Vector_135" d="M12 51H3V54H12V51Z" fill="#FF7216"/>
<path id="Vector_136" d="M18 51H12V54H18V51Z" fill="#F78A18"/>
<path id="Vector_137" d="M24 51H18V54H24V51Z" fill="#FFC110"/>
<path id="Vector_138" d="M54 51H24V54H54V51Z" fill="#FFEF16"/>
<path id="Vector_139" d="M60 51H54V54H60V51Z" fill="#FFC110"/>
<path id="Vector_140" d="M66 51H60V54H66V51Z" fill="#F78A18"/>
<path id="Vector_141" d="M75 51H66V54H75V51Z" fill="#FF7216"/>
</g>
</svg>
