<svg width="20" height="20" viewBox="0 0 20 20" fill="none" xmlns="http://www.w3.org/2000/svg">
<g id="ticket-alt" clip-path="url(#clip0_323_11096)">
<path id="Vector" d="M4.44444 6.66671H15.5556V13.3334H4.44444V6.66671ZM18.3333 10C18.3333 10.9205 19.0795 11.6667 20 11.6667V15C20 15.9205 19.2538 16.6667 18.3333 16.6667H1.66667C0.746181 16.6667 0 15.9205 0 15V11.6667C0.920486 11.6667 1.66667 10.9205 1.66667 10C1.66667 9.07955 0.920486 8.33337 0 8.33337V5.00004C0 4.07955 0.746181 3.33337 1.66667 3.33337H18.3333C19.2538 3.33337 20 4.07955 20 5.00004V8.33337C19.0795 8.33337 18.3333 9.07955 18.3333 10ZM16.6667 6.38893C16.6667 5.92869 16.2936 5.5556 15.8333 5.5556H4.16667C3.70642 5.5556 3.33333 5.92869 3.33333 6.38893V13.6111C3.33333 14.0714 3.70642 14.4445 4.16667 14.4445H15.8333C16.2936 14.4445 16.6667 14.0714 16.6667 13.6111V6.38893Z" fill="#FFB913"/>
</g>
<defs>
<clipPath id="clip0_323_11096">
<rect width="20" height="20" fill="white"/>
</clipPath>
</defs>
</svg>
